<svg xmlns="http://www.w3.org/2000/svg" viewBox="0 0 207 33.75"><defs><style>.cls-1{fill:#32869e;}</style></defs><title>aboutme</title><g id="Layer_2" data-name="Layer 2"><g id="Layer_2-2" data-name="Layer 2"><rect class="cls-1" y="6.75" width="2.25" height="27"/><rect class="cls-1" x="6.75" width="13.5" height="2.25"/><rect class="cls-1" x="6.75" y="4.5" width="13.5" height="2.25"/><rect class="cls-1" x="13.5" y="13.5" width="4.5" height="2.25"/><rect class="cls-1" x="13.5" y="18" width="4.5" height="2.25"/><rect class="cls-1" x="24.75" y="6.75" width="2.25" height="27"/><rect class="cls-1" x="4.5" y="9" width="2.25" height="24.75"/><rect class="cls-1" x="20.25" y="9" width="2.25" height="24.75"/><rect class="cls-1" x="50" y="13.5" width="2.25" height="20.25" transform="translate(102.25 47.25) rotate(-180)"/><rect class="cls-1" x="36.5" y="13.5" width="11.25" height="2.25" transform="translate(84.25 29.25) rotate(-180)"/><rect class="cls-1" x="41" y="18" width="2.25" height="2.25" transform="translate(84.25 38.25) rotate(-180)"/><rect class="cls-1" x="45.5" y="18" width="2.25" height="11.25" transform="translate(93.25 47.25) rotate(-180)"/><rect class="cls-1" x="32" width="2.25" height="33.75"/><rect class="cls-1" x="36.5" y="31.5" width="11.25" height="2.25"/><rect class="cls-1" x="41" y="27" width="2.25" height="2.25"/><rect class="cls-1" x="36.5" y="18" width="2.25" height="11.25"/><rect class="cls-1" x="36.5" width="2.25" height="11.25" transform="translate(75.25 11.25) rotate(-180)"/><rect class="cls-1" x="57.25" y="13.5" width="2.25" height="20.25"/><rect class="cls-1" x="61.75" y="13.5" width="11.25" height="2.25"/><rect class="cls-1" x="66.25" y="18" width="2.25" height="2.25"/><rect class="cls-1" x="61.75" y="18" width="2.25" height="11.25"/><rect class="cls-1" x="75.25" y="13.5" width="2.25" height="20.25" transform="translate(152.75 47.25) rotate(-180)"/><rect class="cls-1" x="70.75" y="18" width="2.25" height="11.25" transform="translate(143.75 47.25) rotate(-180)"/><rect class="cls-1" x="61.75" y="31.5" width="11.25" height="2.25"/><rect class="cls-1" x="66.25" y="27" width="2.25" height="2.25"/><rect class="cls-1" x="114.5" y="18" width="2.25" height="11.25"/><rect class="cls-1" x="119" y="18" width="2.25" height="6.75"/><rect class="cls-1" x="107.75" y="13.5" width="20.25" height="2.25"/><rect class="cls-1" x="107.75" y="18" width="4.5" height="2.25"/><rect class="cls-1" x="123.5" y="18" width="4.5" height="2.25"/><rect class="cls-1" x="114.5" y="6.75" width="2.25" height="4.5"/><rect class="cls-1" x="119" y="6.75" width="2.25" height="4.5"/><rect class="cls-1" x="119" y="27" width="9" height="2.25"/><rect class="cls-1" x="114.5" y="31.5" width="13.5" height="2.25"/><rect class="cls-1" x="82.5" y="13.5" width="2.25" height="20.25"/><rect class="cls-1" x="87" y="31.5" width="11.25" height="2.25"/><rect class="cls-1" x="91.5" y="27" width="2.25" height="2.25"/><rect class="cls-1" x="87" y="13.5" width="2.25" height="15.75"/><rect class="cls-1" x="100.5" y="13.5" width="2.25" height="20.25" transform="translate(203.25 47.25) rotate(180)"/><rect class="cls-1" x="96" y="13.5" width="2.25" height="15.75" transform="translate(194.25 42.75) rotate(180)"/><rect class="cls-1" x="186.75" y="13.5" width="2.25" height="20.25"/><rect class="cls-1" x="191.25" y="13.5" width="11.25" height="2.25"/><rect class="cls-1" x="200.25" y="18" width="11.25" height="2.25" transform="translate(186.75 225) rotate(-90)"/><rect class="cls-1" x="191.25" y="18" width="2.25" height="11.25"/><rect class="cls-1" x="191.25" y="31.5" width="15.75" height="2.25" transform="translate(398.25 65.25) rotate(-180)"/><rect class="cls-1" x="195.75" y="27" width="11.25" height="2.25" transform="translate(402.75 56.25) rotate(-180)"/><rect class="cls-1" x="195.75" y="22.5" width="6.75" height="2.25"/><rect class="cls-1" x="148" width="2.25" height="33.75"/><rect class="cls-1" x="179.5" width="2.25" height="33.75"/><rect class="cls-1" x="152.5" y="4.5" width="2.25" height="29.25"/><rect class="cls-1" x="175" y="4.5" width="2.25" height="29.25"/><rect class="cls-1" x="152.5" width="24.75" height="2.25"/><rect class="cls-1" x="157" y="4.5" width="15.75" height="2.25"/><rect class="cls-1" x="161.5" y="9" width="2.25" height="18"/><rect class="cls-1" x="166" y="9" width="2.25" height="18"/></g></g></svg>