<svg xmlns="http://www.w3.org/2000/svg" viewBox="0 0 218.25 33.75"><defs><style>.cls-1{fill:#32869e;}</style></defs><g id="Layer_2" data-name="Layer 2"><g id="Layer_4" data-name="Layer 4"><rect class="cls-1" y="6.75" width="2.25" height="27"/><rect class="cls-1" x="6.75" width="13.5" height="2.25"/><rect class="cls-1" x="6.75" y="4.5" width="13.5" height="2.25"/><rect class="cls-1" x="13.5" y="13.5" width="4.5" height="2.25"/><rect class="cls-1" x="13.5" y="18" width="4.5" height="2.25"/><rect class="cls-1" x="24.75" y="6.75" width="2.25" height="27"/><rect class="cls-1" x="4.5" y="9" width="2.25" height="24.75"/><rect class="cls-1" x="20.25" y="9" width="2.25" height="24.75"/><rect class="cls-1" x="50" y="20.25" width="2.25" height="13.5" transform="translate(102.25 54) rotate(-180)"/><rect class="cls-1" x="36.5" y="13.5" width="11.25" height="2.25" transform="translate(84.25 29.25) rotate(-180)"/><rect class="cls-1" x="36.5" y="18" width="11.25" height="2.25" transform="translate(84.25 38.25) rotate(-180)"/><rect class="cls-1" x="45.5" y="22.5" width="2.25" height="6.75" transform="translate(93.25 51.75) rotate(-180)"/><rect class="cls-1" x="32" width="2.25" height="33.75"/><rect class="cls-1" x="36.5" y="31.5" width="11.25" height="2.25"/><rect class="cls-1" x="41" y="27" width="2.25" height="2.25"/><rect class="cls-1" x="36.5" y="22.5" width="2.25" height="6.75"/><rect class="cls-1" x="50" width="2.25" height="13.5" transform="translate(102.25 13.5) rotate(180)"/><rect class="cls-1" x="45.5" y="4.5" width="2.25" height="6.75" transform="translate(93.25 15.75) rotate(180)"/><rect class="cls-1" x="36.5" width="11.25" height="2.25"/><rect class="cls-1" x="41" y="4.5" width="2.25" height="2.25"/><rect class="cls-1" x="36.5" y="4.5" width="2.25" height="6.75"/><rect class="cls-1" x="57.25" width="2.25" height="33.75"/><rect class="cls-1" x="61.75" width="11.25" height="2.25"/><rect class="cls-1" x="66.25" y="4.5" width="2.25" height="2.25"/><rect class="cls-1" x="61.75" y="4.5" width="2.25" height="24.75"/><rect class="cls-1" x="75.25" width="2.25" height="33.75" transform="translate(152.75 33.75) rotate(-180)"/><rect class="cls-1" x="70.75" y="4.5" width="2.25" height="24.75" transform="translate(143.75 33.75) rotate(-180)"/><rect class="cls-1" x="61.75" y="31.5" width="11.25" height="2.25"/><rect class="cls-1" x="66.25" y="27" width="2.25" height="2.25"/><rect class="cls-1" x="123.5" y="4.5" width="2.25" height="29.25"/><rect class="cls-1" x="128" y="4.5" width="2.25" height="29.25"/><rect class="cls-1" x="114.5" width="24.75" height="2.25"/><rect class="cls-1" x="114.5" y="4.5" width="6.75" height="2.25"/><rect class="cls-1" x="132.5" y="4.5" width="6.75" height="2.25"/><rect class="cls-1" x="82.5" width="2.25" height="33.75"/><rect class="cls-1" x="107.25" width="2.25" height="33.75"/><rect class="cls-1" x="87" width="2.25" height="29.25"/><rect class="cls-1" x="102.75" width="2.25" height="29.25"/><rect class="cls-1" x="87" y="31.5" width="18" height="2.25"/><rect class="cls-1" x="91.5" y="27" width="9" height="2.25"/><rect class="cls-1" x="207" y="22.5" width="2.25" height="20.25" transform="translate(175.5 240.75) rotate(-90)"/><rect class="cls-1" x="207" y="-9" width="2.25" height="20.25" transform="translate(207 209.25) rotate(-90)"/><rect class="cls-1" x="209.25" y="20.25" width="2.25" height="15.75" transform="translate(182.25 238.5) rotate(-90)"/><rect class="cls-1" x="209.25" y="-2.25" width="2.25" height="15.75" transform="translate(204.75 216) rotate(-90)"/><rect class="cls-1" x="186.75" y="15.75" width="24.75" height="2.25" transform="translate(182.25 216) rotate(-90)"/><rect class="cls-1" x="195.75" y="15.75" width="15.75" height="2.25" transform="translate(186.75 220.5) rotate(-90)"/><rect class="cls-1" x="208.12" y="16.88" width="2.25" height="4.5" transform="translate(190.12 228.37) rotate(-90)"/><rect class="cls-1" x="208.12" y="12.38" width="2.25" height="4.5" transform="translate(194.62 223.87) rotate(-90)"/><rect class="cls-1" x="159.25" width="2.25" height="33.75"/><rect class="cls-1" x="190.75" width="2.25" height="33.75"/><rect class="cls-1" x="163.75" y="4.5" width="2.25" height="29.25"/><rect class="cls-1" x="186.25" y="4.5" width="2.25" height="29.25"/><rect class="cls-1" x="163.75" width="24.75" height="2.25"/><rect class="cls-1" x="168.25" y="4.5" width="15.75" height="2.25"/><rect class="cls-1" x="172.75" y="9" width="2.25" height="18"/><rect class="cls-1" x="177.25" y="9" width="2.25" height="18"/></g></g></svg>