<svg xmlns="http://www.w3.org/2000/svg" viewBox="0 0 402.25 33.75"><defs><style>.cls-1{fill:#33869e;}</style></defs><title>adobeillustra</title><g id="Layer_2" data-name="Layer 2"><g id="Layer_1-2" data-name="Layer 1"><rect class="cls-1" y="6.75" width="2.25" height="27"/><rect class="cls-1" x="6.75" width="13.5" height="2.25"/><rect class="cls-1" x="6.75" y="4.5" width="13.5" height="2.25"/><rect class="cls-1" x="13.5" y="13.5" width="4.5" height="2.25"/><rect class="cls-1" x="13.5" y="18" width="4.5" height="2.25"/><rect class="cls-1" x="24.75" y="6.75" width="2.25" height="27"/><rect class="cls-1" x="4.5" y="9" width="2.25" height="24.75"/><rect class="cls-1" x="20.25" y="9" width="2.25" height="24.75"/><rect class="cls-1" x="32" y="13.5" width="2.25" height="20.25"/><rect class="cls-1" x="36.5" y="13.5" width="11.25" height="2.25"/><rect class="cls-1" x="41" y="18" width="2.25" height="2.25"/><rect class="cls-1" x="36.5" y="18" width="2.25" height="11.25"/><rect class="cls-1" x="50" width="2.25" height="33.75" transform="translate(102.25 33.75) rotate(-180)"/><rect class="cls-1" x="36.5" y="31.5" width="11.25" height="2.25" transform="translate(84.25 65.25) rotate(-180)"/><rect class="cls-1" x="41" y="27" width="2.25" height="2.25" transform="translate(84.25 56.25) rotate(-180)"/><rect class="cls-1" x="45.5" y="18" width="2.25" height="11.25" transform="translate(93.25 47.25) rotate(-180)"/><rect class="cls-1" x="45.5" width="2.25" height="11.25"/><rect class="cls-1" x="107.75" y="13.5" width="2.25" height="20.25"/><rect class="cls-1" x="112.25" y="13.5" width="11.25" height="2.25"/><rect class="cls-1" x="121.25" y="18" width="11.25" height="2.25" transform="translate(107.75 146) rotate(-90)"/><rect class="cls-1" x="112.25" y="18" width="2.25" height="11.25"/><rect class="cls-1" x="112.25" y="31.5" width="15.75" height="2.25" transform="translate(240.25 65.25) rotate(-180)"/><rect class="cls-1" x="116.75" y="27" width="11.25" height="2.25" transform="translate(244.75 56.25) rotate(-180)"/><rect class="cls-1" x="116.75" y="22.5" width="6.75" height="2.25"/><rect class="cls-1" x="100.5" y="13.5" width="2.25" height="20.25" transform="translate(203.25 47.25) rotate(-180)"/><rect class="cls-1" x="87" y="13.5" width="11.25" height="2.25" transform="translate(185.25 29.25) rotate(-180)"/><rect class="cls-1" x="91.5" y="18" width="2.25" height="2.25" transform="translate(185.25 38.25) rotate(-180)"/><rect class="cls-1" x="96" y="18" width="2.25" height="11.25" transform="translate(194.25 47.25) rotate(-180)"/><rect class="cls-1" x="82.5" width="2.25" height="33.75"/><rect class="cls-1" x="87" y="31.5" width="11.25" height="2.25"/><rect class="cls-1" x="91.5" y="27" width="2.25" height="2.25"/><rect class="cls-1" x="87" y="18" width="2.25" height="11.25"/><rect class="cls-1" x="87" width="2.25" height="11.25" transform="translate(176.25 11.25) rotate(-180)"/><rect class="cls-1" x="57.25" y="13.5" width="2.25" height="20.25"/><rect class="cls-1" x="61.75" y="13.5" width="11.25" height="2.25"/><rect class="cls-1" x="66.25" y="18" width="2.25" height="2.25"/><rect class="cls-1" x="61.75" y="18" width="2.25" height="11.25"/><rect class="cls-1" x="75.25" y="13.5" width="2.25" height="20.25" transform="translate(152.75 47.25) rotate(-180)"/><rect class="cls-1" x="70.75" y="18" width="2.25" height="11.25" transform="translate(143.75 47.25) rotate(-180)"/><rect class="cls-1" x="61.75" y="31.5" width="11.25" height="2.25"/><rect class="cls-1" x="66.25" y="27" width="2.25" height="2.25"/><rect class="cls-1" x="299.5" y="13.5" width="2.25" height="20.25"/><rect class="cls-1" x="304" y="13.5" width="11.25" height="2.25"/><rect class="cls-1" x="308.5" y="18" width="2.25" height="2.25"/><rect class="cls-1" x="304" y="18" width="2.25" height="11.25"/><rect class="cls-1" x="317.5" y="13.5" width="2.25" height="20.25" transform="translate(637.25 47.25) rotate(-180)"/><rect class="cls-1" x="322" y="31.5" width="4.5" height="2.25" transform="translate(648.5 65.25) rotate(-180)"/><rect class="cls-1" x="322" y="27" width="4.5" height="2.25" transform="translate(648.5 56.25) rotate(-180)"/><rect class="cls-1" x="313" y="18" width="2.25" height="11.25" transform="translate(628.25 47.25) rotate(-180)"/><rect class="cls-1" x="308.5" y="27" width="2.25" height="2.25"/><rect class="cls-1" x="304" y="31.5" width="11.25" height="2.25"/><rect class="cls-1" x="230.5" y="13.5" width="2.25" height="15.75"/><rect class="cls-1" x="235" y="18" width="2.25" height="15.75"/><rect class="cls-1" x="234.9" y="13.5" width="9.1" height="2.25"/><rect class="cls-1" x="239.4" y="18" width="4.6" height="2.25"/><rect class="cls-1" x="223.75" y="31.5" width="9.1" height="2.25" transform="translate(456.6 65.25) rotate(-180)"/><rect class="cls-1" x="223.75" y="27" width="4.6" height="2.25" transform="translate(452.1 56.25) rotate(-180)"/><rect class="cls-1" x="274.25" y="13.5" width="2.25" height="20.25"/><rect class="cls-1" x="278.75" y="13.5" width="15.75" height="2.25"/><rect class="cls-1" x="283.25" y="18" width="11.25" height="2.25"/><rect class="cls-1" x="278.75" y="18" width="2.25" height="15.75"/><rect class="cls-1" x="356.75" y="13.5" width="2.25" height="20.25"/><rect class="cls-1" x="361.25" y="13.5" width="11.25" height="2.25"/><rect class="cls-1" x="365.75" y="18" width="2.25" height="2.25"/><rect class="cls-1" x="361.25" y="18" width="2.25" height="11.25"/><rect class="cls-1" x="374.75" y="13.5" width="2.25" height="20.25" transform="translate(751.75 47.25) rotate(-180)"/><rect class="cls-1" x="370.25" y="18" width="2.25" height="11.25" transform="translate(742.75 47.25) rotate(-180)"/><rect class="cls-1" x="361.25" y="31.5" width="11.25" height="2.25"/><rect class="cls-1" x="365.75" y="27" width="2.25" height="2.25"/><rect class="cls-1" x="255.75" y="18" width="2.25" height="11.25"/><rect class="cls-1" x="260.25" y="18" width="2.25" height="6.75"/><rect class="cls-1" x="249" y="13.5" width="20.25" height="2.25"/><rect class="cls-1" x="249" y="18" width="4.5" height="2.25"/><rect class="cls-1" x="264.75" y="18" width="4.5" height="2.25"/><rect class="cls-1" x="255.75" y="6.75" width="2.25" height="4.5"/><rect class="cls-1" x="260.25" y="6.75" width="2.25" height="4.5"/><rect class="cls-1" x="260.25" y="27" width="9" height="2.25"/><rect class="cls-1" x="255.75" y="31.5" width="13.5" height="2.25"/><rect class="cls-1" x="198.5" y="13.5" width="2.25" height="20.25"/><rect class="cls-1" x="203" y="31.5" width="11.25" height="2.25"/><rect class="cls-1" x="207.5" y="27" width="2.25" height="2.25"/><rect class="cls-1" x="203" y="13.5" width="2.25" height="15.75"/><rect class="cls-1" x="216.5" y="13.5" width="2.25" height="20.25" transform="translate(435.25 47.25) rotate(180)"/><rect class="cls-1" x="212" y="13.5" width="2.25" height="15.75" transform="translate(426.25 42.75) rotate(180)"/><rect class="cls-1" x="161.5" width="2.25" height="33.75"/><rect class="cls-1" x="166" width="2.25" height="18"/><rect class="cls-1" x="168.25" y="20.25" width="2.25" height="9"/><rect class="cls-1" x="166" y="31.5" width="9" height="2.25"/><rect class="cls-1" x="172.75" y="20.25" width="2.25" height="9"/><rect class="cls-1" x="143" width="2.25" height="33.75"/><rect class="cls-1" x="147.5" width="2.25" height="33.75"/><rect class="cls-1" x="152" width="2.25" height="2.25"/><rect class="cls-1" x="152" y="4.5" width="4.5" height="2.25"/><rect class="cls-1" x="180" width="2.25" height="33.75"/><rect class="cls-1" x="184.5" width="2.25" height="18"/><rect class="cls-1" x="186.75" y="20.25" width="2.25" height="9"/><rect class="cls-1" x="184.5" y="31.5" width="9" height="2.25"/><rect class="cls-1" x="191.25" y="20.25" width="2.25" height="9"/><rect class="cls-1" x="338.25" y="18" width="2.25" height="11.25"/><rect class="cls-1" x="342.75" y="18" width="2.25" height="6.75"/><rect class="cls-1" x="331.5" y="13.5" width="20.25" height="2.25"/><rect class="cls-1" x="331.5" y="18" width="4.5" height="2.25"/><rect class="cls-1" x="347.25" y="18" width="4.5" height="2.25"/><rect class="cls-1" x="338.25" y="6.75" width="2.25" height="4.5"/><rect class="cls-1" x="342.75" y="6.75" width="2.25" height="4.5"/><rect class="cls-1" x="342.75" y="27" width="9" height="2.25"/><rect class="cls-1" x="338.25" y="31.5" width="13.5" height="2.25"/><rect class="cls-1" x="382" y="13.5" width="2.25" height="20.25"/><rect class="cls-1" x="386.5" y="13.5" width="15.75" height="2.25"/><rect class="cls-1" x="391" y="18" width="11.25" height="2.25"/><rect class="cls-1" x="386.5" y="18" width="2.25" height="15.75"/></g></g></svg>