<svg xmlns="http://www.w3.org/2000/svg" viewBox="0 0 178.5 33.75"><defs><style>.cls-1{fill:#35869e;}</style></defs><title>contactl</title><g id="Layer_2" data-name="Layer 2"><g id="Layer_1-2" data-name="Layer 1"><rect class="cls-1" width="2.25" height="33.75"/><rect class="cls-1" x="4.5" y="4.5" width="2.25" height="24.75"/><rect class="cls-1" x="9" y="4.5" width="11.25" height="2.25"/><rect class="cls-1" x="4.5" width="15.75" height="2.25"/><rect class="cls-1" x="9" y="27" width="11.25" height="2.25"/><rect class="cls-1" x="4.5" y="31.5" width="15.75" height="2.25"/><rect class="cls-1" x="142" y="22.5" width="2.25" height="20.25" transform="translate(110.5 175.75) rotate(-90)"/><rect class="cls-1" x="128.5" y="22.5" width="11.25" height="2.25" transform="translate(110.5 157.75) rotate(-90)"/><rect class="cls-1" x="137.5" y="22.5" width="2.25" height="2.25" transform="translate(115 162.25) rotate(-90)"/><rect class="cls-1" x="144.25" y="20.25" width="2.25" height="15.75" transform="translate(117.25 173.5) rotate(-90)"/><rect class="cls-1" x="142" y="4.5" width="2.25" height="20.25" transform="translate(157.75 -128.5) rotate(90)"/><rect class="cls-1" x="144.25" y="11.25" width="2.25" height="15.75" transform="translate(164.5 -126.25) rotate(90)"/><rect class="cls-1" x="101" y="13.5" width="2.25" height="20.25"/><rect class="cls-1" x="105.5" y="13.5" width="11.25" height="2.25"/><rect class="cls-1" x="110" y="18" width="2.25" height="2.25"/><rect class="cls-1" x="105.5" y="18" width="2.25" height="11.25"/><rect class="cls-1" x="119" y="13.5" width="2.25" height="20.25" transform="translate(240.25 47.25) rotate(-180)"/><rect class="cls-1" x="123.5" y="31.5" width="4.5" height="2.25" transform="translate(251.5 65.25) rotate(-180)"/><rect class="cls-1" x="123.5" y="27" width="4.5" height="2.25" transform="translate(251.5 56.25) rotate(-180)"/><rect class="cls-1" x="114.5" y="18" width="2.25" height="11.25" transform="translate(231.25 47.25) rotate(-180)"/><rect class="cls-1" x="110" y="27" width="2.25" height="2.25"/><rect class="cls-1" x="105.5" y="31.5" width="11.25" height="2.25"/><rect class="cls-1" x="25.25" y="13.5" width="2.25" height="20.25"/><rect class="cls-1" x="29.75" y="13.5" width="11.25" height="2.25"/><rect class="cls-1" x="34.25" y="18" width="2.25" height="2.25"/><rect class="cls-1" x="29.75" y="18" width="2.25" height="11.25"/><rect class="cls-1" x="43.25" y="13.5" width="2.25" height="20.25" transform="translate(88.75 47.25) rotate(-180)"/><rect class="cls-1" x="38.75" y="18" width="2.25" height="11.25" transform="translate(79.75 47.25) rotate(-180)"/><rect class="cls-1" x="29.75" y="31.5" width="11.25" height="2.25"/><rect class="cls-1" x="34.25" y="27" width="2.25" height="2.25"/><rect class="cls-1" x="165" y="18" width="2.25" height="11.25"/><rect class="cls-1" x="169.5" y="18" width="2.25" height="6.75"/><rect class="cls-1" x="158.25" y="13.5" width="20.25" height="2.25"/><rect class="cls-1" x="158.25" y="18" width="4.5" height="2.25"/><rect class="cls-1" x="174" y="18" width="4.5" height="2.25"/><rect class="cls-1" x="165" y="6.75" width="2.25" height="4.5"/><rect class="cls-1" x="169.5" y="6.75" width="2.25" height="4.5"/><rect class="cls-1" x="169.5" y="27" width="9" height="2.25"/><rect class="cls-1" x="165" y="31.5" width="13.5" height="2.25"/><rect class="cls-1" x="50.5" y="13.5" width="2.25" height="20.25"/><rect class="cls-1" x="55" y="13.5" width="11.25" height="2.25"/><rect class="cls-1" x="59.5" y="18" width="2.25" height="2.25"/><rect class="cls-1" x="55" y="18" width="2.25" height="15.75"/><rect class="cls-1" x="68.5" y="13.5" width="2.25" height="20.25" transform="translate(139.25 47.25) rotate(-180)"/><rect class="cls-1" x="64" y="18" width="2.25" height="15.75" transform="translate(130.25 51.75) rotate(-180)"/><rect class="cls-1" x="82.5" y="18" width="2.25" height="11.25"/><rect class="cls-1" x="87" y="18" width="2.25" height="6.75"/><rect class="cls-1" x="75.75" y="13.5" width="20.25" height="2.25"/><rect class="cls-1" x="75.75" y="18" width="4.5" height="2.25"/><rect class="cls-1" x="91.5" y="18" width="4.5" height="2.25"/><rect class="cls-1" x="82.5" y="6.75" width="2.25" height="4.5"/><rect class="cls-1" x="87" y="6.75" width="2.25" height="4.5"/><rect class="cls-1" x="87" y="27" width="9" height="2.25"/><rect class="cls-1" x="82.5" y="31.5" width="13.5" height="2.25"/></g></g></svg>