<svg xmlns="http://www.w3.org/2000/svg" viewBox="0 0 59 33.75"><defs><style>.cls-1{fill:#33869e;}</style></defs><title>dg</title><g id="Layer_2" data-name="Layer 2"><g id="Layer_1-2" data-name="Layer 1"><rect class="cls-1" x="32" width="2.25" height="33.75"/><rect class="cls-1" x="36.5" y="4.5" width="2.25" height="24.75"/><rect class="cls-1" x="41" y="4.5" width="9" height="2.25"/><rect class="cls-1" x="36.5" width="15.75" height="2.25"/><rect class="cls-1" x="41" y="27" width="9" height="2.25"/><rect class="cls-1" x="36.5" y="31.5" width="15.75" height="2.25"/><rect class="cls-1" x="52.25" y="6.75" width="2.25" height="20.25"/><rect class="cls-1" x="56.75" y="6.75" width="2.25" height="20.25"/><rect class="cls-1" width="2.25" height="33.75"/><rect class="cls-1" x="4.5" y="4.5" width="2.25" height="24.75"/><rect class="cls-1" x="9" y="4.5" width="18" height="2.25"/><rect class="cls-1" x="4.5" width="22.5" height="2.25"/><rect class="cls-1" x="9" y="27" width="13.5" height="2.25"/><rect class="cls-1" x="4.5" y="31.5" width="22.5" height="2.25"/><rect class="cls-1" x="24.75" y="13.5" width="2.25" height="15.75" transform="translate(51.75 42.75) rotate(-180)"/><rect class="cls-1" x="20.25" y="13.5" width="2.25" height="11.25" transform="translate(42.75 38.25) rotate(-180)"/><rect class="cls-1" x="13.5" y="13.5" width="4.5" height="2.25"/><rect class="cls-1" x="13.5" y="18" width="4.5" height="2.25"/></g></g></svg>