<svg xmlns="http://www.w3.org/2000/svg" viewBox="0 0 45.5 33.75"><defs><style>.cls-1{fill:#33869e;}</style></defs><title>ff</title><g id="Layer_2" data-name="Layer 2"><g id="Layer_1-2" data-name="Layer 1"><rect class="cls-1" x="9" y="-9" width="2.25" height="20.25" transform="translate(9 11.25) rotate(-90)"/><rect class="cls-1" x="11.25" y="-2.25" width="2.25" height="15.75" transform="translate(6.75 18) rotate(-90)"/><rect class="cls-1" x="-13.5" y="18" width="29.25" height="2.25" transform="translate(-18 20.25) rotate(-90)"/><rect class="cls-1" x="-6.75" y="20.25" width="24.75" height="2.25" transform="translate(-15.75 27) rotate(-90)"/><rect class="cls-1" x="10.12" y="16.87" width="2.25" height="4.5" transform="translate(-7.87 30.37) rotate(-90)"/><rect class="cls-1" x="10.12" y="12.37" width="2.25" height="4.5" transform="translate(-3.37 25.87) rotate(-90)"/><rect class="cls-1" x="34.25" y="-9" width="2.25" height="20.25" transform="translate(34.25 36.5) rotate(-90)"/><rect class="cls-1" x="36.5" y="-2.25" width="2.25" height="15.75" transform="translate(32 43.25) rotate(-90)"/><rect class="cls-1" x="11.75" y="18" width="29.25" height="2.25" transform="translate(7.25 45.5) rotate(-90)"/><rect class="cls-1" x="18.5" y="20.25" width="24.75" height="2.25" transform="translate(9.5 52.25) rotate(-90)"/><rect class="cls-1" x="35.37" y="16.87" width="2.25" height="4.5" transform="translate(17.38 55.62) rotate(-90)"/><rect class="cls-1" x="35.37" y="12.37" width="2.25" height="4.5" transform="translate(21.88 51.12) rotate(-90)"/></g></g></svg>