<svg xmlns="http://www.w3.org/2000/svg" viewBox="0 0 326.5 50.63"><defs><style>.cls-1{fill:#33869e;}</style></defs><title>gdesign</title><g id="Layer_2" data-name="Layer 2"><g id="Layer_4" data-name="Layer 4"><rect class="cls-1" x="218.75" y="16.88" width="2.25" height="20.25"/><rect class="cls-1" x="223.25" y="16.88" width="11.25" height="2.25"/><rect class="cls-1" x="232.25" y="21.38" width="11.25" height="2.25" transform="translate(215.37 260.38) rotate(-90)"/><rect class="cls-1" x="223.25" y="21.38" width="2.25" height="11.25"/><rect class="cls-1" x="223.25" y="34.88" width="15.75" height="2.25" transform="translate(462.25 72) rotate(-180)"/><rect class="cls-1" x="227.75" y="30.38" width="11.25" height="2.25" transform="translate(466.75 63) rotate(-180)"/><rect class="cls-1" x="227.75" y="25.88" width="6.75" height="2.25"/><rect class="cls-1" x="281" y="16.88" width="2.25" height="20.25"/><rect class="cls-1" x="285.5" y="34.88" width="11.25" height="2.25"/><rect class="cls-1" x="290" y="30.38" width="2.25" height="2.25"/><rect class="cls-1" x="285.5" y="21.38" width="2.25" height="11.25"/><rect class="cls-1" x="299" y="16.88" width="2.25" height="33.75" transform="translate(600.25 67.5) rotate(180)"/><rect class="cls-1" x="285.5" y="16.88" width="11.25" height="2.25" transform="translate(582.25 36) rotate(180)"/><rect class="cls-1" x="290" y="21.38" width="2.25" height="2.25" transform="translate(582.25 45) rotate(180)"/><rect class="cls-1" x="294.5" y="21.38" width="2.25" height="11.25" transform="translate(591.25 54) rotate(180)"/><rect class="cls-1" x="294.5" y="39.38" width="2.25" height="6.75"/><rect class="cls-1" x="281" y="43.88" width="11.25" height="2.25" transform="translate(573.25 90) rotate(180)"/><rect class="cls-1" x="281" y="48.38" width="15.75" height="2.25" transform="translate(577.75 99) rotate(180)"/><rect class="cls-1" x="186.75" y="3.38" width="2.25" height="33.75"/><rect class="cls-1" x="191.25" y="7.88" width="2.25" height="24.75"/><rect class="cls-1" x="195.75" y="7.88" width="9" height="2.25"/><rect class="cls-1" x="191.25" y="3.38" width="15.75" height="2.25"/><rect class="cls-1" x="195.75" y="30.38" width="9" height="2.25"/><rect class="cls-1" x="191.25" y="34.88" width="15.75" height="2.25"/><rect class="cls-1" x="207" y="10.13" width="2.25" height="20.25"/><rect class="cls-1" x="211.5" y="10.13" width="2.25" height="20.25"/><rect class="cls-1" x="250.75" y="16.88" width="2.25" height="15.75"/><rect class="cls-1" x="255.25" y="21.38" width="2.25" height="15.75"/><rect class="cls-1" x="255.15" y="16.88" width="9.1" height="2.25"/><rect class="cls-1" x="259.65" y="21.38" width="4.6" height="2.25"/><rect class="cls-1" x="244" y="34.88" width="9.1" height="2.25" transform="translate(497.1 72) rotate(-180)"/><rect class="cls-1" x="244" y="30.38" width="4.6" height="2.25" transform="translate(492.6 63) rotate(-180)"/><rect class="cls-1" x="306.25" y="16.88" width="2.25" height="20.25"/><rect class="cls-1" x="310.75" y="16.88" width="11.25" height="2.25"/><rect class="cls-1" x="315.25" y="21.38" width="2.25" height="2.25"/><rect class="cls-1" x="310.75" y="21.38" width="2.25" height="15.75"/><rect class="cls-1" x="324.25" y="16.88" width="2.25" height="20.25" transform="translate(650.75 54) rotate(-180)"/><rect class="cls-1" x="319.75" y="21.38" width="2.25" height="15.75" transform="translate(641.75 58.5) rotate(-180)"/><rect class="cls-1" x="269.25" y="10.13" width="2.25" height="4.5"/><rect class="cls-1" x="273.75" y="10.13" width="2.25" height="4.5"/><rect class="cls-1" x="269.25" y="16.88" width="2.25" height="20.25"/><rect class="cls-1" x="273.75" y="16.88" width="2.25" height="20.25"/><rect class="cls-1" x="160.5" y="22.5" width="2.25" height="20.25" transform="translate(129 194.25) rotate(-90)"/><rect class="cls-1" x="147" y="22.5" width="11.25" height="2.25" transform="translate(129 176.25) rotate(-90)"/><rect class="cls-1" x="156" y="22.5" width="2.25" height="2.25" transform="translate(133.5 180.75) rotate(-90)"/><rect class="cls-1" x="162.75" y="20.25" width="2.25" height="15.75" transform="translate(135.75 192) rotate(-90)"/><rect class="cls-1" x="160.5" y="4.5" width="2.25" height="20.25" transform="translate(176.25 -147) rotate(90)"/><rect class="cls-1" x="162.75" y="11.25" width="2.25" height="15.75" transform="translate(183 -144.75) rotate(90)"/><rect class="cls-1" x="57.25" y="13.5" width="2.25" height="20.25"/><rect class="cls-1" x="61.75" y="13.5" width="11.25" height="2.25"/><rect class="cls-1" x="66.25" y="18" width="2.25" height="2.25"/><rect class="cls-1" x="61.75" y="18" width="2.25" height="11.25"/><rect class="cls-1" x="75.25" y="13.5" width="2.25" height="20.25" transform="translate(152.75 47.25) rotate(-180)"/><rect class="cls-1" x="79.75" y="31.5" width="4.5" height="2.25" transform="translate(164 65.25) rotate(-180)"/><rect class="cls-1" x="79.75" y="27" width="4.5" height="2.25" transform="translate(164 56.25) rotate(-180)"/><rect class="cls-1" x="70.75" y="18" width="2.25" height="11.25" transform="translate(143.75 47.25) rotate(-180)"/><rect class="cls-1" x="66.25" y="27" width="2.25" height="2.25"/><rect class="cls-1" x="61.75" y="31.5" width="11.25" height="2.25"/><rect class="cls-1" width="2.25" height="33.75"/><rect class="cls-1" x="4.5" y="4.5" width="2.25" height="24.75"/><rect class="cls-1" x="9" y="4.5" width="18" height="2.25"/><rect class="cls-1" x="4.5" width="22.5" height="2.25"/><rect class="cls-1" x="9" y="27" width="13.5" height="2.25"/><rect class="cls-1" x="4.5" y="31.5" width="22.5" height="2.25"/><rect class="cls-1" x="24.75" y="13.5" width="2.25" height="15.75" transform="translate(51.75 42.75) rotate(-180)"/><rect class="cls-1" x="20.25" y="13.5" width="2.25" height="11.25" transform="translate(42.75 38.25) rotate(-180)"/><rect class="cls-1" x="13.5" y="13.5" width="4.5" height="2.25"/><rect class="cls-1" x="13.5" y="18" width="4.5" height="2.25"/><rect class="cls-1" x="32" y="13.5" width="2.25" height="20.25"/><rect class="cls-1" x="36.5" y="13.5" width="15.75" height="2.25"/><rect class="cls-1" x="41" y="18" width="11.25" height="2.25"/><rect class="cls-1" x="36.5" y="18" width="2.25" height="15.75"/><rect class="cls-1" x="107.25" y="13.5" width="2.25" height="20.25" transform="translate(216.75 47.25) rotate(-180)"/><rect class="cls-1" x="93.75" y="31.5" width="11.25" height="2.25" transform="translate(198.75 65.25) rotate(-180)"/><rect class="cls-1" x="98.25" y="27" width="2.25" height="2.25" transform="translate(198.75 56.25) rotate(-180)"/><rect class="cls-1" x="102.75" y="18" width="2.25" height="11.25" transform="translate(207.75 47.25) rotate(-180)"/><rect class="cls-1" x="89.25" y="13.5" width="2.25" height="33.75"/><rect class="cls-1" x="93.75" y="13.5" width="11.25" height="2.25"/><rect class="cls-1" x="98.25" y="18" width="2.25" height="2.25"/><rect class="cls-1" x="93.75" y="18" width="2.25" height="11.25"/><rect class="cls-1" x="93.75" y="36" width="2.25" height="11.25" transform="translate(189.75 83.25) rotate(-180)"/><rect class="cls-1" x="114.5" width="2.25" height="33.75"/><rect class="cls-1" x="119" width="2.25" height="33.75"/><rect class="cls-1" x="128" y="22.5" width="2.25" height="11.25"/><rect class="cls-1" x="132.5" y="13.5" width="2.25" height="20.25"/><rect class="cls-1" x="123.5" y="13.5" width="6.75" height="2.25"/><rect class="cls-1" x="123.5" y="18" width="6.75" height="2.25"/><rect class="cls-1" x="139.75" y="6.75" width="2.25" height="4.5"/><rect class="cls-1" x="144.25" y="6.75" width="2.25" height="4.5"/><rect class="cls-1" x="139.75" y="13.5" width="2.25" height="20.25"/><rect class="cls-1" x="144.25" y="13.5" width="2.25" height="20.25"/></g></g></svg>