<svg xmlns="http://www.w3.org/2000/svg" viewBox="0 0 194.25 33.75"><defs><style>.cls-1{fill:#31869e;}</style></defs><title>jiang_contact</title><g id="Layer_2" data-name="Layer 2"><g id="Layer_4" data-name="Layer 4"><rect class="cls-1" x="112.25" y="6.75" width="2.25" height="27"/><rect class="cls-1" x="119" width="13.5" height="2.25"/><rect class="cls-1" x="119" y="4.5" width="13.5" height="2.25"/><rect class="cls-1" x="125.75" y="13.5" width="4.5" height="2.25"/><rect class="cls-1" x="125.75" y="18" width="4.5" height="2.25"/><rect class="cls-1" x="137" y="6.75" width="2.25" height="27"/><rect class="cls-1" x="116.75" y="9" width="2.25" height="24.75"/><rect class="cls-1" x="132.5" y="9" width="2.25" height="24.75"/><rect class="cls-1" width="2.25" height="33.75"/><rect class="cls-1" x="4.5" y="4.5" width="2.25" height="24.75"/><rect class="cls-1" x="9" y="4.5" width="11.25" height="2.25"/><rect class="cls-1" x="4.5" width="15.75" height="2.25"/><rect class="cls-1" x="9" y="27" width="11.25" height="2.25"/><rect class="cls-1" x="4.5" y="31.5" width="15.75" height="2.25"/><rect class="cls-1" x="25.25" width="2.25" height="33.75"/><rect class="cls-1" x="29.75" width="11.25" height="2.25"/><rect class="cls-1" x="34.25" y="4.5" width="2.25" height="2.25"/><rect class="cls-1" x="29.75" y="4.5" width="2.25" height="24.75"/><rect class="cls-1" x="43.25" width="2.25" height="33.75" transform="translate(88.75 33.75) rotate(-180)"/><rect class="cls-1" x="38.75" y="4.5" width="2.25" height="24.75" transform="translate(79.75 33.75) rotate(-180)"/><rect class="cls-1" x="29.75" y="31.5" width="11.25" height="2.25"/><rect class="cls-1" x="34.25" y="27" width="2.25" height="2.25"/><rect class="cls-1" x="91.5" y="4.5" width="2.25" height="29.25"/><rect class="cls-1" x="96" y="4.5" width="2.25" height="29.25"/><rect class="cls-1" x="82.5" width="24.75" height="2.25"/><rect class="cls-1" x="82.5" y="4.5" width="6.75" height="2.25"/><rect class="cls-1" x="100.5" y="4.5" width="6.75" height="2.25"/><rect class="cls-1" x="50.5" width="2.25" height="33.75"/><rect class="cls-1" x="55" width="2.25" height="18"/><rect class="cls-1" x="57.25" y="20.25" width="2.25" height="9"/><rect class="cls-1" x="55" y="31.5" width="9" height="2.25"/><rect class="cls-1" x="61.75" y="18" width="2.25" height="11.25"/><rect class="cls-1" x="75.25" width="2.25" height="33.75" transform="translate(152.75 33.75) rotate(-180)"/><rect class="cls-1" x="70.75" y="15.75" width="2.25" height="18" transform="translate(143.75 49.5) rotate(-180)"/><rect class="cls-1" x="68.5" y="4.5" width="2.25" height="9" transform="translate(139.25 18) rotate(-180)"/><rect class="cls-1" x="64" width="9" height="2.25" transform="translate(137 2.25) rotate(-180)"/><rect class="cls-1" x="64" y="4.5" width="2.25" height="11.25" transform="translate(130.25 20.25) rotate(-180)"/><rect class="cls-1" x="144.25" width="2.25" height="33.75"/><rect class="cls-1" x="148.75" y="4.5" width="2.25" height="24.75"/><rect class="cls-1" x="153.25" y="4.5" width="11.25" height="2.25"/><rect class="cls-1" x="148.75" width="15.75" height="2.25"/><rect class="cls-1" x="153.25" y="27" width="11.25" height="2.25"/><rect class="cls-1" x="148.75" y="31.5" width="15.75" height="2.25"/><rect class="cls-1" x="178.5" y="4.5" width="2.25" height="29.25"/><rect class="cls-1" x="183" y="4.5" width="2.25" height="29.25"/><rect class="cls-1" x="169.5" width="24.75" height="2.25"/><rect class="cls-1" x="169.5" y="4.5" width="6.75" height="2.25"/><rect class="cls-1" x="187.5" y="4.5" width="6.75" height="2.25"/></g></g></svg>