<svg xmlns="http://www.w3.org/2000/svg" viewBox="0 0 1674.83 276.52"><defs><style>.cls-1,.cls-2{fill:#33869e;}.cls-1{stroke:#33869e;stroke-miterlimit:10;stroke-width:9px;}</style></defs><title>Asset 1</title><g id="Layer_2" data-name="Layer 2"><g id="Layer_1-2" data-name="Layer 1"><rect class="cls-1" x="1456.32" y="58" width="17.83" height="214.02"/><rect class="cls-1" x="1509.82" y="4.5" width="107.01" height="17.83"/><rect class="cls-1" x="1509.82" y="40.17" width="107.01" height="17.83"/><rect class="cls-1" x="1563.32" y="111.51" width="35.67" height="17.83"/><rect class="cls-1" x="1563.32" y="147.18" width="35.67" height="17.83"/><rect class="cls-1" x="1652.5" y="58" width="17.83" height="214.02"/><rect class="cls-1" x="1491.98" y="75.84" width="17.83" height="196.18"/><rect class="cls-1" x="1616.83" y="75.84" width="17.83" height="196.18"/><rect class="cls-1" x="1349.31" y="4.5" width="17.83" height="267.52"/><rect class="cls-1" x="1384.98" y="4.5" width="89.17" height="17.83"/><rect class="cls-1" x="1420.65" y="40.17" width="17.83" height="17.83"/><rect class="cls-1" x="1384.98" y="40.17" width="17.83" height="196.18"/><rect class="cls-1" x="1491.98" y="4.5" width="17.83" height="267.52" transform="translate(3001.8 276.52) rotate(-180)"/><rect class="cls-1" x="1456.32" y="40.17" width="17.83" height="196.18" transform="translate(2930.47 276.52) rotate(-180)"/><rect class="cls-1" x="1384.98" y="254.19" width="89.17" height="17.83"/><rect class="cls-1" x="1420.65" y="218.52" width="17.83" height="17.83"/><rect class="cls-2" x="445.68" y="82.7" width="11.11" height="100"/><rect class="cls-2" x="467.91" y="171.59" width="55.56" height="11.11"/><rect class="cls-2" x="490.13" y="149.37" width="11.11" height="11.11"/><rect class="cls-2" x="467.91" y="104.93" width="11.11" height="55.56"/><rect class="cls-2" x="534.57" y="82.7" width="11.11" height="166.67" transform="translate(1080.26 332.08) rotate(180)"/><rect class="cls-2" x="467.91" y="82.7" width="55.56" height="11.11" transform="translate(991.37 176.52) rotate(180)"/><rect class="cls-2" x="490.13" y="104.93" width="11.11" height="11.11" transform="translate(991.37 220.96) rotate(180)"/><rect class="cls-2" x="512.35" y="104.93" width="11.11" height="55.56" transform="translate(1035.81 265.41) rotate(180)"/><rect class="cls-2" x="512.35" y="193.82" width="11.11" height="33.33"/><rect class="cls-2" x="445.68" y="216.04" width="55.56" height="11.11" transform="translate(946.92 443.19) rotate(180)"/><rect class="cls-2" x="445.68" y="238.26" width="77.78" height="11.11" transform="translate(969.15 487.63) rotate(180)"/><rect class="cls-2" x="172.84" y="82.7" width="11.11" height="100"/><rect class="cls-2" x="195.06" y="82.7" width="55.56" height="11.11"/><rect class="cls-2" x="217.29" y="104.93" width="11.11" height="11.11"/><rect class="cls-2" x="195.06" y="104.93" width="11.11" height="55.56"/><rect class="cls-2" x="261.73" y="82.7" width="11.11" height="100" transform="translate(534.57 265.41) rotate(-180)"/><rect class="cls-2" x="283.95" y="171.59" width="22.22" height="11.11" transform="translate(590.13 354.3) rotate(-180)"/><rect class="cls-2" x="283.95" y="149.37" width="22.22" height="11.11" transform="translate(590.13 309.85) rotate(-180)"/><rect class="cls-2" x="239.51" y="104.93" width="11.11" height="55.56" transform="translate(490.13 265.41) rotate(-180)"/><rect class="cls-2" x="217.29" y="149.37" width="11.11" height="11.11"/><rect class="cls-2" x="195.06" y="171.59" width="55.56" height="11.11"/><rect class="cls-2" y="116.04" width="11.11" height="66.67"/><rect class="cls-2" x="22.22" y="116.04" width="11.11" height="44.44"/><rect class="cls-2" x="88.89" y="16.04" width="11.11" height="166.67" transform="translate(188.89 198.74) rotate(-180)"/><rect class="cls-2" x="22.22" y="171.59" width="55.56" height="11.11" transform="translate(100 354.3) rotate(-180)"/><rect class="cls-2" x="44.44" y="149.37" width="11.11" height="11.11" transform="translate(100 309.85) rotate(-180)"/><rect class="cls-2" x="66.67" y="16.04" width="11.11" height="144.45" transform="translate(144.45 176.52) rotate(-180)"/><rect class="cls-2" x="325.93" y="82.7" width="11.11" height="100"/><rect class="cls-2" x="348.15" y="82.7" width="55.56" height="11.11"/><rect class="cls-2" x="370.37" y="104.93" width="11.11" height="11.11"/><rect class="cls-2" x="348.15" y="104.93" width="11.11" height="77.78"/><rect class="cls-2" x="414.82" y="82.7" width="11.11" height="100" transform="translate(840.75 265.41) rotate(-180)"/><rect class="cls-2" x="392.6" y="104.93" width="11.11" height="77.78" transform="translate(796.31 287.63) rotate(-180)"/><rect class="cls-2" x="119.75" y="49.37" width="11.11" height="22.22"/><rect class="cls-2" x="141.98" y="49.37" width="11.11" height="22.22"/><rect class="cls-2" x="119.75" y="82.7" width="11.11" height="100"/><rect class="cls-2" x="141.98" y="82.7" width="11.11" height="100"/><rect class="cls-2" x="724.7" y="93.82" width="11.11" height="100"/><rect class="cls-2" x="746.92" y="93.82" width="55.56" height="11.11"/><rect class="cls-2" x="791.37" y="116.04" width="55.56" height="11.11" transform="translate(697.55 940.74) rotate(-90)"/><rect class="cls-2" x="746.92" y="116.04" width="11.11" height="55.56"/><rect class="cls-2" x="746.92" y="182.71" width="77.78" height="11.11" transform="translate(1571.62 376.52) rotate(-180)"/><rect class="cls-2" x="769.14" y="160.48" width="55.56" height="11.11" transform="translate(1593.85 332.08) rotate(-180)"/><rect class="cls-2" x="769.14" y="138.26" width="33.33" height="11.11"/><rect class="cls-2" x="1137.05" y="93.82" width="11.11" height="100"/><rect class="cls-2" x="1159.27" y="182.71" width="55.56" height="11.11"/><rect class="cls-2" x="1181.5" y="160.48" width="11.11" height="11.11"/><rect class="cls-2" x="1159.27" y="116.04" width="11.11" height="55.56"/><rect class="cls-2" x="1225.94" y="93.82" width="11.11" height="166.67" transform="translate(2462.99 354.3) rotate(180)"/><rect class="cls-2" x="1159.27" y="93.82" width="55.56" height="11.11" transform="translate(2374.1 198.74) rotate(180)"/><rect class="cls-2" x="1181.5" y="116.04" width="11.11" height="11.11" transform="translate(2374.1 243.19) rotate(180)"/><rect class="cls-2" x="1203.72" y="116.04" width="11.11" height="55.56" transform="translate(2418.55 287.63) rotate(180)"/><rect class="cls-2" x="1203.72" y="204.93" width="11.11" height="33.33"/><rect class="cls-2" x="1137.05" y="227.15" width="55.56" height="11.11" transform="translate(2329.66 465.41) rotate(180)"/><rect class="cls-2" x="1137.05" y="249.37" width="77.78" height="11.11" transform="translate(2351.88 509.86) rotate(180)"/><rect class="cls-2" x="933.34" y="93.82" width="11.11" height="100" transform="translate(1877.8 287.63) rotate(-180)"/><rect class="cls-2" x="866.68" y="182.71" width="55.56" height="11.11" transform="translate(1788.91 376.52) rotate(-180)"/><rect class="cls-2" x="888.9" y="160.48" width="11.11" height="11.11" transform="translate(1788.91 332.08) rotate(-180)"/><rect class="cls-2" x="911.12" y="116.04" width="11.11" height="55.56" transform="translate(1833.35 287.63) rotate(-180)"/><rect class="cls-2" x="844.45" y="93.82" width="11.11" height="166.67"/><rect class="cls-2" x="866.68" y="93.82" width="55.56" height="11.11"/><rect class="cls-2" x="888.9" y="116.04" width="11.11" height="11.11"/><rect class="cls-2" x="866.68" y="116.04" width="11.11" height="55.56"/><rect class="cls-2" x="866.68" y="204.93" width="11.11" height="55.56" transform="translate(1744.46 465.41) rotate(-180)"/><rect class="cls-2" x="1017.3" y="93.82" width="11.11" height="100"/><rect class="cls-2" x="1039.52" y="93.82" width="55.56" height="11.11"/><rect class="cls-2" x="1061.74" y="116.04" width="11.11" height="11.11"/><rect class="cls-2" x="1039.52" y="116.04" width="11.11" height="77.78"/><rect class="cls-2" x="1106.19" y="93.82" width="11.11" height="100" transform="translate(2223.48 287.63) rotate(-180)"/><rect class="cls-2" x="1083.96" y="116.04" width="11.11" height="77.78" transform="translate(2179.04 309.85) rotate(-180)"/><rect class="cls-2" x="604.95" y="27.15" width="11.11" height="166.67"/><rect class="cls-2" x="627.17" y="27.15" width="11.11" height="144.45"/><rect class="cls-2" x="649.39" y="160.48" width="55.56" height="11.11"/><rect class="cls-2" x="627.17" y="182.71" width="77.78" height="11.11"/><rect class="cls-2" x="964.21" y="60.48" width="11.11" height="22.22"/><rect class="cls-2" x="986.43" y="60.48" width="11.11" height="22.22"/><rect class="cls-2" x="964.21" y="93.82" width="11.11" height="100"/><rect class="cls-2" x="986.43" y="93.82" width="11.11" height="100"/></g></g></svg>