<svg xmlns="http://www.w3.org/2000/svg" viewBox="0 0 1226.12 233.34"><defs><style>.cls-1{fill:#000;}</style></defs><title>Asset 4</title><g id="Layer_2" data-name="Layer 2"><g id="Layer_1-2" data-name="Layer 1"><rect class="cls-1" x="1126.12" y="66.67" width="11.11" height="100"/><rect class="cls-1" x="1148.34" y="155.56" width="55.56" height="11.11"/><rect class="cls-1" x="1170.57" y="133.33" width="11.11" height="11.11"/><rect class="cls-1" x="1148.34" y="88.89" width="11.11" height="55.56"/><rect class="cls-1" x="1215.01" y="66.67" width="11.11" height="166.67" transform="translate(2441.14 300) rotate(180)"/><rect class="cls-1" x="1148.34" y="66.67" width="55.56" height="11.11" transform="translate(2352.25 144.45) rotate(180)"/><rect class="cls-1" x="1170.57" y="88.89" width="11.11" height="11.11" transform="translate(2352.25 188.89) rotate(180)"/><rect class="cls-1" x="1192.79" y="88.89" width="11.11" height="55.56" transform="translate(2396.69 233.34) rotate(180)"/><rect class="cls-1" x="1192.79" y="177.78" width="11.11" height="33.33"/><rect class="cls-1" x="1126.12" y="200" width="55.56" height="11.11" transform="translate(2307.8 411.12) rotate(180)"/><rect class="cls-1" x="1126.12" y="222.22" width="77.78" height="11.11" transform="translate(2330.02 455.56) rotate(180)"/><rect class="cls-1" x="853.28" y="66.67" width="11.11" height="100"/><rect class="cls-1" x="875.5" y="66.67" width="55.56" height="11.11"/><rect class="cls-1" x="897.72" y="88.89" width="11.11" height="11.11"/><rect class="cls-1" x="875.5" y="88.89" width="11.11" height="55.56"/><rect class="cls-1" x="942.17" y="66.67" width="11.11" height="100" transform="translate(1895.45 233.34) rotate(-180)"/><rect class="cls-1" x="964.39" y="155.56" width="22.22" height="11.11" transform="translate(1951.01 322.23) rotate(-180)"/><rect class="cls-1" x="964.39" y="133.33" width="22.22" height="11.11" transform="translate(1951.01 277.78) rotate(-180)"/><rect class="cls-1" x="919.95" y="88.89" width="11.11" height="55.56" transform="translate(1851.01 233.34) rotate(-180)"/><rect class="cls-1" x="897.72" y="133.33" width="11.11" height="11.11"/><rect class="cls-1" x="875.5" y="155.56" width="55.56" height="11.11"/><rect class="cls-1" x="680.44" y="100" width="11.11" height="66.67"/><rect class="cls-1" x="702.66" y="100" width="11.11" height="44.44"/><rect class="cls-1" x="769.33" width="11.11" height="166.67" transform="translate(1549.77 166.67) rotate(-180)"/><rect class="cls-1" x="702.66" y="155.56" width="55.56" height="11.11" transform="translate(1460.88 322.23) rotate(-180)"/><rect class="cls-1" x="724.88" y="133.33" width="11.11" height="11.11" transform="translate(1460.88 277.78) rotate(-180)"/><rect class="cls-1" x="747.11" width="11.11" height="144.45" transform="translate(1505.32 144.45) rotate(-180)"/><rect class="cls-1" x="1006.37" y="66.67" width="11.11" height="100"/><rect class="cls-1" x="1028.59" y="66.67" width="55.56" height="11.11"/><rect class="cls-1" x="1050.81" y="88.89" width="11.11" height="11.11"/><rect class="cls-1" x="1028.59" y="88.89" width="11.11" height="77.78"/><rect class="cls-1" x="1095.26" y="66.67" width="11.11" height="100" transform="translate(2201.63 233.34) rotate(-180)"/><rect class="cls-1" x="1073.04" y="88.89" width="11.11" height="77.78" transform="translate(2157.18 255.56) rotate(-180)"/><rect class="cls-1" x="800.19" y="33.33" width="11.11" height="22.22"/><rect class="cls-1" x="822.42" y="33.33" width="11.11" height="22.22"/><rect class="cls-1" x="800.19" y="66.67" width="11.11" height="100"/><rect class="cls-1" x="822.42" y="66.67" width="11.11" height="100"/><rect class="cls-1" x="119.75" y="66.67" width="11.11" height="100"/><rect class="cls-1" x="141.98" y="66.67" width="55.56" height="11.11"/><rect class="cls-1" x="186.42" y="88.89" width="55.56" height="11.11" transform="translate(119.75 308.65) rotate(-90)"/><rect class="cls-1" x="141.98" y="88.89" width="11.11" height="55.56"/><rect class="cls-1" x="141.98" y="155.56" width="77.78" height="11.11" transform="translate(361.73 322.23) rotate(-180)"/><rect class="cls-1" x="164.2" y="133.33" width="55.56" height="11.11" transform="translate(383.96 277.78) rotate(-180)"/><rect class="cls-1" x="164.2" y="111.11" width="33.33" height="11.11"/><rect class="cls-1" x="532.1" y="66.67" width="11.11" height="100"/><rect class="cls-1" x="554.33" y="155.56" width="55.56" height="11.11"/><rect class="cls-1" x="576.55" y="133.33" width="11.11" height="11.11"/><rect class="cls-1" x="554.33" y="88.89" width="11.11" height="55.56"/><rect class="cls-1" x="620.99" y="66.67" width="11.11" height="166.67" transform="translate(1253.1 300) rotate(180)"/><rect class="cls-1" x="554.33" y="66.67" width="55.56" height="11.11" transform="translate(1164.21 144.45) rotate(180)"/><rect class="cls-1" x="576.55" y="88.89" width="11.11" height="11.11" transform="translate(1164.21 188.89) rotate(180)"/><rect class="cls-1" x="598.77" y="88.89" width="11.11" height="55.56" transform="translate(1208.66 233.34) rotate(180)"/><rect class="cls-1" x="598.77" y="177.78" width="11.11" height="33.33"/><rect class="cls-1" x="532.1" y="200" width="55.56" height="11.11" transform="translate(1119.77 411.12) rotate(180)"/><rect class="cls-1" x="532.1" y="222.22" width="77.78" height="11.11" transform="translate(1141.99 455.56) rotate(180)"/><rect class="cls-1" x="328.4" y="66.67" width="11.11" height="100" transform="translate(667.91 233.34) rotate(-180)"/><rect class="cls-1" x="261.73" y="155.56" width="55.56" height="11.11" transform="translate(579.02 322.23) rotate(-180)"/><rect class="cls-1" x="283.95" y="133.33" width="11.11" height="11.11" transform="translate(579.02 277.78) rotate(-180)"/><rect class="cls-1" x="306.18" y="88.89" width="11.11" height="55.56" transform="translate(623.46 233.34) rotate(-180)"/><rect class="cls-1" x="239.51" y="66.67" width="11.11" height="166.67"/><rect class="cls-1" x="261.73" y="66.67" width="55.56" height="11.11"/><rect class="cls-1" x="283.95" y="88.89" width="11.11" height="11.11"/><rect class="cls-1" x="261.73" y="88.89" width="11.11" height="55.56"/><rect class="cls-1" x="261.73" y="177.78" width="11.11" height="55.56" transform="translate(534.57 411.12) rotate(-180)"/><rect class="cls-1" x="412.35" y="66.67" width="11.11" height="100"/><rect class="cls-1" x="434.57" y="66.67" width="55.56" height="11.11"/><rect class="cls-1" x="456.8" y="88.89" width="11.11" height="11.11"/><rect class="cls-1" x="434.57" y="88.89" width="11.11" height="77.78"/><rect class="cls-1" x="501.24" y="66.67" width="11.11" height="100" transform="translate(1013.59 233.34) rotate(-180)"/><rect class="cls-1" x="479.02" y="88.89" width="11.11" height="77.78" transform="translate(969.15 255.56) rotate(-180)"/><rect class="cls-1" width="11.11" height="166.67"/><rect class="cls-1" x="22.22" width="11.11" height="144.45"/><rect class="cls-1" x="44.44" y="133.33" width="55.56" height="11.11"/><rect class="cls-1" x="22.22" y="155.56" width="77.78" height="11.11"/><rect class="cls-1" x="359.26" y="33.33" width="11.11" height="22.22"/><rect class="cls-1" x="381.49" y="33.33" width="11.11" height="22.22"/><rect class="cls-1" x="359.26" y="66.67" width="11.11" height="100"/><rect class="cls-1" x="381.49" y="66.67" width="11.11" height="100"/></g></g></svg>