<svg xmlns="http://www.w3.org/2000/svg" viewBox="0 0 338 47.25"><defs><style>.cls-1{fill:#34869e;}</style></defs><title>latestproject</title><g id="Layer_2" data-name="Layer 2"><g id="Layer_1-2" data-name="Layer 1"><rect class="cls-1" x="267.25" y="13.5" width="2.25" height="20.25"/><rect class="cls-1" x="271.75" y="13.5" width="11.25" height="2.25"/><rect class="cls-1" x="280.75" y="18" width="11.25" height="2.25" transform="translate(267.25 305.5) rotate(-90)"/><rect class="cls-1" x="271.75" y="18" width="2.25" height="11.25"/><rect class="cls-1" x="271.75" y="31.5" width="15.75" height="2.25" transform="translate(559.25 65.25) rotate(-180)"/><rect class="cls-1" x="276.25" y="27" width="11.25" height="2.25" transform="translate(563.75 56.25) rotate(-180)"/><rect class="cls-1" x="276.25" y="22.5" width="6.75" height="2.25"/><rect class="cls-1" x="301.5" y="22.5" width="2.25" height="20.25" transform="translate(270 335.25) rotate(-90)"/><rect class="cls-1" x="288" y="22.5" width="11.25" height="2.25" transform="translate(270 317.25) rotate(-90)"/><rect class="cls-1" x="297" y="22.5" width="2.25" height="2.25" transform="translate(274.5 321.75) rotate(-90)"/><rect class="cls-1" x="303.75" y="20.25" width="2.25" height="15.75" transform="translate(276.75 333) rotate(-90)"/><rect class="cls-1" x="301.5" y="4.5" width="2.25" height="20.25" transform="translate(317.25 -288) rotate(90)"/><rect class="cls-1" x="303.75" y="11.25" width="2.25" height="15.75" transform="translate(324 -285.75) rotate(90)"/><rect class="cls-1" x="199.25" y="13.5" width="2.25" height="20.25"/><rect class="cls-1" x="203.75" y="13.5" width="15.75" height="2.25"/><rect class="cls-1" x="208.25" y="18" width="11.25" height="2.25"/><rect class="cls-1" x="203.75" y="18" width="2.25" height="15.75"/><rect class="cls-1" x="224.5" y="13.5" width="2.25" height="20.25"/><rect class="cls-1" x="229" y="13.5" width="11.25" height="2.25"/><rect class="cls-1" x="233.5" y="18" width="2.25" height="2.25"/><rect class="cls-1" x="229" y="18" width="2.25" height="11.25"/><rect class="cls-1" x="242.5" y="13.5" width="2.25" height="20.25" transform="translate(487.25 47.25) rotate(-180)"/><rect class="cls-1" x="238" y="18" width="2.25" height="11.25" transform="translate(478.25 47.25) rotate(-180)"/><rect class="cls-1" x="229" y="31.5" width="11.25" height="2.25"/><rect class="cls-1" x="233.5" y="27" width="2.25" height="2.25"/><rect class="cls-1" x="192" width="2.25" height="20.25" transform="translate(386.25 20.25) rotate(-180)"/><rect class="cls-1" x="171.75" y="18" width="18" height="2.25" transform="translate(361.5 38.25) rotate(-180)"/><rect class="cls-1" x="176.25" y="13.5" width="9" height="2.25" transform="translate(361.5 29.25) rotate(-180)"/><rect class="cls-1" x="187.5" y="4.5" width="2.25" height="11.25" transform="translate(377.25 20.25) rotate(-180)"/><rect class="cls-1" x="167.25" width="2.25" height="33.75"/><rect class="cls-1" x="171.75" width="18" height="2.25"/><rect class="cls-1" x="176.25" y="4.5" width="9" height="2.25"/><rect class="cls-1" x="171.75" y="4.5" width="2.25" height="11.25"/><rect class="cls-1" x="171.75" y="22.5" width="2.25" height="11.25" transform="translate(345.75 56.25) rotate(-180)"/><rect class="cls-1" x="324.5" y="18" width="2.25" height="11.25"/><rect class="cls-1" x="329" y="18" width="2.25" height="6.75"/><rect class="cls-1" x="317.75" y="13.5" width="20.25" height="2.25"/><rect class="cls-1" x="317.75" y="18" width="4.5" height="2.25"/><rect class="cls-1" x="333.5" y="18" width="4.5" height="2.25"/><rect class="cls-1" x="324.5" y="6.75" width="2.25" height="4.5"/><rect class="cls-1" x="329" y="6.75" width="2.25" height="4.5"/><rect class="cls-1" x="329" y="27" width="9" height="2.25"/><rect class="cls-1" x="324.5" y="31.5" width="13.5" height="2.25"/><rect class="cls-1" x="258.87" y="14.63" width="4.5" height="2.25" transform="translate(276.87 -245.37) rotate(90)"/><rect class="cls-1" x="254.37" y="14.63" width="4.5" height="2.25" transform="translate(272.37 -240.87) rotate(90)"/><rect class="cls-1" x="260" y="20.25" width="2.25" height="27" transform="translate(522.25 67.5) rotate(-180)"/><rect class="cls-1" x="255.5" y="20.25" width="2.25" height="11.25" transform="translate(513.25 51.75) rotate(-180)"/><rect class="cls-1" x="253.25" y="33.75" width="2.25" height="9" transform="translate(508.75 76.5) rotate(-180)"/><rect class="cls-1" x="248.75" y="45" width="9" height="2.25" transform="translate(506.5 92.25) rotate(-180)"/><rect class="cls-1" x="248.75" y="33.75" width="2.25" height="9" transform="translate(499.75 76.5) rotate(-180)"/><rect class="cls-1" x="76.5" y="13.5" width="2.25" height="20.25"/><rect class="cls-1" x="81" y="13.5" width="11.25" height="2.25"/><rect class="cls-1" x="90" y="18" width="11.25" height="2.25" transform="translate(76.5 114.75) rotate(-90)"/><rect class="cls-1" x="81" y="18" width="2.25" height="11.25"/><rect class="cls-1" x="81" y="31.5" width="15.75" height="2.25" transform="translate(177.75 65.25) rotate(-180)"/><rect class="cls-1" x="85.5" y="27" width="11.25" height="2.25" transform="translate(182.25 56.25) rotate(-180)"/><rect class="cls-1" x="85.5" y="22.5" width="6.75" height="2.25"/><rect class="cls-1" x="25.25" y="13.5" width="2.25" height="20.25"/><rect class="cls-1" x="29.75" y="13.5" width="11.25" height="2.25"/><rect class="cls-1" x="34.25" y="18" width="2.25" height="2.25"/><rect class="cls-1" x="29.75" y="18" width="2.25" height="11.25"/><rect class="cls-1" x="43.25" y="13.5" width="2.25" height="20.25" transform="translate(88.75 47.25) rotate(-180)"/><rect class="cls-1" x="47.75" y="31.5" width="4.5" height="2.25" transform="translate(100 65.25) rotate(-180)"/><rect class="cls-1" x="47.75" y="27" width="4.5" height="2.25" transform="translate(100 56.25) rotate(-180)"/><rect class="cls-1" x="38.75" y="18" width="2.25" height="11.25" transform="translate(79.75 47.25) rotate(-180)"/><rect class="cls-1" x="34.25" y="27" width="2.25" height="2.25"/><rect class="cls-1" x="29.75" y="31.5" width="11.25" height="2.25"/><rect class="cls-1" x="108.5" y="13.5" width="2.25" height="15.75"/><rect class="cls-1" x="113" y="18" width="2.25" height="15.75"/><rect class="cls-1" x="112.9" y="13.5" width="9.1" height="2.25"/><rect class="cls-1" x="117.4" y="18" width="4.6" height="2.25"/><rect class="cls-1" x="101.75" y="31.5" width="9.1" height="2.25" transform="translate(212.6 65.25) rotate(-180)"/><rect class="cls-1" x="101.75" y="27" width="4.6" height="2.25" transform="translate(208.1 56.25) rotate(-180)"/><rect class="cls-1" x="58" y="18" width="2.25" height="11.25"/><rect class="cls-1" x="62.5" y="18" width="2.25" height="6.75"/><rect class="cls-1" x="51.25" y="13.5" width="20.25" height="2.25"/><rect class="cls-1" x="51.25" y="18" width="4.5" height="2.25"/><rect class="cls-1" x="67" y="18" width="4.5" height="2.25"/><rect class="cls-1" x="58" y="6.75" width="2.25" height="4.5"/><rect class="cls-1" x="62.5" y="6.75" width="2.25" height="4.5"/><rect class="cls-1" x="62.5" y="27" width="9" height="2.25"/><rect class="cls-1" x="58" y="31.5" width="13.5" height="2.25"/><rect class="cls-1" width="2.25" height="33.75"/><rect class="cls-1" x="4.5" width="2.25" height="29.25"/><rect class="cls-1" x="9" y="27" width="11.25" height="2.25"/><rect class="cls-1" x="4.5" y="31.5" width="15.75" height="2.25"/><rect class="cls-1" x="133.75" y="18" width="2.25" height="11.25"/><rect class="cls-1" x="138.25" y="18" width="2.25" height="6.75"/><rect class="cls-1" x="127" y="13.5" width="20.25" height="2.25"/><rect class="cls-1" x="127" y="18" width="4.5" height="2.25"/><rect class="cls-1" x="142.75" y="18" width="4.5" height="2.25"/><rect class="cls-1" x="133.75" y="6.75" width="2.25" height="4.5"/><rect class="cls-1" x="138.25" y="6.75" width="2.25" height="4.5"/><rect class="cls-1" x="138.25" y="27" width="9" height="2.25"/><rect class="cls-1" x="133.75" y="31.5" width="13.5" height="2.25"/></g></g></svg>