<svg xmlns="http://www.w3.org/2000/svg" viewBox="0 0 352.25 47.25"><defs><style>.cls-1{fill:#33869e;}</style></defs><title>layout</title><g id="Layer_2" data-name="Layer 2"><g id="Layer_4" data-name="Layer 4"><rect class="cls-1" x="25.25" y="13.5" width="2.25" height="20.25"/><rect class="cls-1" x="29.75" y="13.5" width="11.25" height="2.25"/><rect class="cls-1" x="34.25" y="18" width="2.25" height="2.25"/><rect class="cls-1" x="29.75" y="18" width="2.25" height="11.25"/><rect class="cls-1" x="43.25" y="13.5" width="2.25" height="20.25" transform="translate(88.75 47.25) rotate(-180)"/><rect class="cls-1" x="47.75" y="31.5" width="4.5" height="2.25" transform="translate(100 65.25) rotate(-180)"/><rect class="cls-1" x="47.75" y="27" width="4.5" height="2.25" transform="translate(100 56.25) rotate(-180)"/><rect class="cls-1" x="38.75" y="18" width="2.25" height="11.25" transform="translate(79.75 47.25) rotate(-180)"/><rect class="cls-1" x="34.25" y="27" width="2.25" height="2.25"/><rect class="cls-1" x="29.75" y="31.5" width="11.25" height="2.25"/><rect class="cls-1" x="82.5" y="13.5" width="2.25" height="20.25"/><rect class="cls-1" x="87" y="13.5" width="11.25" height="2.25"/><rect class="cls-1" x="91.5" y="18" width="2.25" height="2.25"/><rect class="cls-1" x="87" y="18" width="2.25" height="11.25"/><rect class="cls-1" x="100.5" y="13.5" width="2.25" height="20.25" transform="translate(203.25 47.25) rotate(-180)"/><rect class="cls-1" x="96" y="18" width="2.25" height="11.25" transform="translate(194.25 47.25) rotate(-180)"/><rect class="cls-1" x="87" y="31.5" width="11.25" height="2.25"/><rect class="cls-1" x="91.5" y="27" width="2.25" height="2.25"/><rect class="cls-1" x="139.75" y="18" width="2.25" height="11.25"/><rect class="cls-1" x="144.25" y="18" width="2.25" height="6.75"/><rect class="cls-1" x="133" y="13.5" width="20.25" height="2.25"/><rect class="cls-1" x="133" y="18" width="4.5" height="2.25"/><rect class="cls-1" x="148.75" y="18" width="4.5" height="2.25"/><rect class="cls-1" x="139.75" y="6.75" width="2.25" height="4.5"/><rect class="cls-1" x="144.25" y="6.75" width="2.25" height="4.5"/><rect class="cls-1" x="144.25" y="27" width="9" height="2.25"/><rect class="cls-1" x="139.75" y="31.5" width="13.5" height="2.25"/><rect class="cls-1" x="107.75" y="13.5" width="2.25" height="20.25"/><rect class="cls-1" x="112.25" y="31.5" width="11.25" height="2.25"/><rect class="cls-1" x="116.75" y="27" width="2.25" height="2.25"/><rect class="cls-1" x="112.25" y="13.5" width="2.25" height="15.75"/><rect class="cls-1" x="125.75" y="13.5" width="2.25" height="20.25" transform="translate(253.75 47.25) rotate(180)"/><rect class="cls-1" x="121.25" y="13.5" width="2.25" height="15.75" transform="translate(244.75 42.75) rotate(180)"/><rect class="cls-1" x="57.25" y="13.5" width="2.25" height="13.5"/><rect class="cls-1" x="61.75" y="13.5" width="2.25" height="11.25"/><rect class="cls-1" x="70.75" y="13.5" width="2.25" height="11.25"/><rect class="cls-1" x="75.25" y="13.5" width="2.25" height="13.5"/><rect class="cls-1" x="66.25" y="22.5" width="2.25" height="11.25" transform="translate(39.25 95.5) rotate(-90)"/><rect class="cls-1" x="66.25" y="31.5" width="2.25" height="15.75"/><rect class="cls-1" x="70.75" y="31.5" width="2.25" height="15.75"/><rect class="cls-1" x="61.75" y="31.5" width="2.25" height="2.25" transform="translate(30.25 95.5) rotate(-90)"/><rect class="cls-1" width="2.25" height="33.75"/><rect class="cls-1" x="4.5" width="2.25" height="29.25"/><rect class="cls-1" x="9" y="27" width="11.25" height="2.25"/><rect class="cls-1" x="4.5" y="31.5" width="15.75" height="2.25"/><rect class="cls-1" x="225.5" y="13.5" width="2.25" height="20.25"/><rect class="cls-1" x="230" y="13.5" width="11.25" height="2.25"/><rect class="cls-1" x="234.5" y="18" width="2.25" height="2.25"/><rect class="cls-1" x="230" y="18" width="2.25" height="11.25"/><rect class="cls-1" x="243.5" width="2.25" height="33.75" transform="translate(489.25 33.75) rotate(-180)"/><rect class="cls-1" x="230" y="31.5" width="11.25" height="2.25" transform="translate(471.25 65.25) rotate(-180)"/><rect class="cls-1" x="234.5" y="27" width="2.25" height="2.25" transform="translate(471.25 56.25) rotate(-180)"/><rect class="cls-1" x="239" y="18" width="2.25" height="11.25" transform="translate(480.25 47.25) rotate(-180)"/><rect class="cls-1" x="239" width="2.25" height="11.25"/><rect class="cls-1" x="200.25" y="13.5" width="2.25" height="20.25"/><rect class="cls-1" x="204.75" y="13.5" width="11.25" height="2.25"/><rect class="cls-1" x="209.25" y="18" width="2.25" height="2.25"/><rect class="cls-1" x="204.75" y="18" width="2.25" height="15.75"/><rect class="cls-1" x="218.25" y="13.5" width="2.25" height="20.25" transform="translate(438.75 47.25) rotate(-180)"/><rect class="cls-1" x="213.75" y="18" width="2.25" height="15.75" transform="translate(429.75 51.75) rotate(-180)"/><rect class="cls-1" x="168.25" y="13.5" width="2.25" height="20.25"/><rect class="cls-1" x="172.75" y="13.5" width="11.25" height="2.25"/><rect class="cls-1" x="177.25" y="18" width="2.25" height="2.25"/><rect class="cls-1" x="172.75" y="18" width="2.25" height="11.25"/><rect class="cls-1" x="186.25" y="13.5" width="2.25" height="20.25" transform="translate(374.75 47.25) rotate(-180)"/><rect class="cls-1" x="190.75" y="31.5" width="4.5" height="2.25" transform="translate(386 65.25) rotate(-180)"/><rect class="cls-1" x="190.75" y="27" width="4.5" height="2.25" transform="translate(386 56.25) rotate(-180)"/><rect class="cls-1" x="181.75" y="18" width="2.25" height="11.25" transform="translate(365.75 47.25) rotate(-180)"/><rect class="cls-1" x="177.25" y="27" width="2.25" height="2.25"/><rect class="cls-1" x="172.75" y="31.5" width="11.25" height="2.25"/><rect class="cls-1" x="332" y="13.5" width="2.25" height="20.25"/><rect class="cls-1" x="336.5" y="13.5" width="11.25" height="2.25"/><rect class="cls-1" x="345.5" y="18" width="11.25" height="2.25" transform="translate(332 370.25) rotate(-90)"/><rect class="cls-1" x="336.5" y="18" width="2.25" height="11.25"/><rect class="cls-1" x="336.5" y="31.5" width="15.75" height="2.25" transform="translate(688.75 65.25) rotate(-180)"/><rect class="cls-1" x="341" y="27" width="11.25" height="2.25" transform="translate(693.25 56.25) rotate(-180)"/><rect class="cls-1" x="341" y="22.5" width="6.75" height="2.25"/><rect class="cls-1" x="324.75" y="13.5" width="2.25" height="20.25" transform="translate(651.75 47.25) rotate(-180)"/><rect class="cls-1" x="311.25" y="31.5" width="11.25" height="2.25" transform="translate(633.75 65.25) rotate(-180)"/><rect class="cls-1" x="315.75" y="27" width="2.25" height="2.25" transform="translate(633.75 56.25) rotate(-180)"/><rect class="cls-1" x="320.25" y="18" width="2.25" height="11.25" transform="translate(642.75 47.25) rotate(-180)"/><rect class="cls-1" x="306.75" y="13.5" width="2.25" height="33.75"/><rect class="cls-1" x="311.25" y="13.5" width="11.25" height="2.25"/><rect class="cls-1" x="315.75" y="18" width="2.25" height="2.25"/><rect class="cls-1" x="311.25" y="18" width="2.25" height="11.25"/><rect class="cls-1" x="311.25" y="36" width="2.25" height="11.25" transform="translate(624.75 83.25) rotate(-180)"/><rect class="cls-1" x="269.75" y="4.5" width="2.25" height="29.25"/><rect class="cls-1" x="274.25" y="4.5" width="2.25" height="29.25"/><rect class="cls-1" x="260.75" width="24.75" height="2.25"/><rect class="cls-1" x="260.75" y="4.5" width="6.75" height="2.25"/><rect class="cls-1" x="278.75" y="4.5" width="6.75" height="2.25"/><rect class="cls-1" x="281.5" y="13.5" width="2.25" height="13.5"/><rect class="cls-1" x="286" y="13.5" width="2.25" height="11.25"/><rect class="cls-1" x="295" y="13.5" width="2.25" height="11.25"/><rect class="cls-1" x="299.5" y="13.5" width="2.25" height="13.5"/><rect class="cls-1" x="290.5" y="22.5" width="2.25" height="11.25" transform="translate(263.5 319.75) rotate(-90)"/><rect class="cls-1" x="290.5" y="31.5" width="2.25" height="15.75"/><rect class="cls-1" x="295" y="31.5" width="2.25" height="15.75"/><rect class="cls-1" x="286" y="31.5" width="2.25" height="2.25" transform="translate(254.5 319.75) rotate(-90)"/></g></g></svg>