<svg xmlns="http://www.w3.org/2000/svg" viewBox="0 0 53.06 54.53">
	<defs>
		<style>
			.cls-1 {
				fill: #f0fbfc;
			}

		</style>
	</defs>
	<title>Asset 5</title>
	<g id="Layer_2" data-name="Layer 2">
		<g id="Layer_1-2" data-name="Layer 1">
			<rect class="cls-1" x="8.79" y="16.24" width="0.3" height="2.73" transform="translate(-10.45 13.9) rotate(-52.26)" />
			<rect class="cls-1" x="9.88" y="17.24" width="1.52" height="0.3" transform="translate(-9.62 15.16) rotate(-52.26)" />
			<rect class="cls-1" x="10.01" y="16.86" width="0.3" height="0.3" transform="translate(-9.51 14.64) rotate(-52.26)" />
			<rect class="cls-1" x="9.16" y="16.37" width="0.3" height="1.52" transform="translate(-9.93 14.01) rotate(-52.26)" />
			<rect class="cls-1" x="10.99" y="13.97" width="0.3" height="4.55" transform="translate(30.81 17.37) rotate(127.74)" />
			<rect class="cls-1" x="7.96" y="15.75" width="1.52" height="0.3" transform="translate(26.64 18.74) rotate(127.74)" />
			<rect class="cls-1" x="9.05" y="16.12" width="0.3" height="0.3" transform="translate(27.7 18.96) rotate(127.74)" />
			<rect class="cls-1" x="9.9" y="15.41" width="0.3" height="1.52" transform="translate(28.99 18.11) rotate(127.74)" />
			<rect class="cls-1" x="11.58" y="17.01" width="0.3" height="0.91" transform="translate(-9.26 16.05) rotate(-52.26)" />
			<rect class="cls-1" x="10.47" y="18.46" width="1.52" height="0.3" transform="translate(32.82 21.12) rotate(127.74)" />
			<rect class="cls-1" x="10.83" y="18.59" width="2.12" height="0.3" transform="translate(33.99 20.8) rotate(127.74)" />
			<rect class="cls-1" x="4.23" y="22.13" width="0.3" height="2.73" transform="translate(-16.88 12.58) rotate(-52.26)" />
			<rect class="cls-1" x="3.41" y="21.64" width="1.52" height="0.3" transform="translate(-15.62 11.75) rotate(-52.26)" />
			<rect class="cls-1" x="4.49" y="22.01" width="0.3" height="0.3" transform="translate(-15.72 12.27) rotate(-52.26)" />
			<rect class="cls-1" x="4.6" y="22.25" width="0.3" height="1.52" transform="translate(-16.35 12.69) rotate(-52.26)" />
			<rect class="cls-1" x="5.72" y="20.21" width="0.3" height="2.73" transform="translate(26.52 30.14) rotate(127.74)" />
			<rect class="cls-1" x="6.99" y="21.56" width="0.61" height="0.3" transform="translate(28.92 29.24) rotate(127.74)" />
			<rect class="cls-1" x="6.51" y="21.19" width="0.61" height="0.3" transform="matrix(-0.61, 0.79, -0.79, -0.61, 27.86, 29.02)" />
			<rect class="cls-1" x="5.34" y="21.29" width="0.3" height="1.52" transform="translate(26.3 31.2) rotate(127.74)" />
			<rect class="cls-1" x="5.45" y="22.75" width="0.3" height="0.3" transform="translate(-15.94 13.32) rotate(-52.26)" />
			<rect class="cls-1" x="5.33" y="23.12" width="1.52" height="0.3" transform="translate(-16.05 13.84) rotate(-52.26)" />
			<rect class="cls-1" x="1.7" y="26.59" width="0.3" height="1.82" transform="translate(-21.03 12.14) rotate(-52.26)" />
			<rect class="cls-1" x="1.84" y="26.23" width="0.3" height="1.21" transform="translate(-20.45 11.98) rotate(-52.26)" />
			<rect class="cls-1" x="2.11" y="22.47" width="0.3" height="4.55" transform="translate(23.22 38.1) rotate(127.74)" />
			<rect class="cls-1" x="2.44" y="26.85" width="1.52" height="0.3" transform="translate(26.51 41) rotate(127.74)" />
			<rect class="cls-1" x="2.57" y="26.48" width="0.3" height="0.3" transform="translate(25.44 40.78) rotate(127.74)" />
			<rect class="cls-1" x="1.5" y="23.07" width="0.3" height="3.94" transform="translate(22.46 39.06) rotate(127.74)" />
			<rect class="cls-1" x="6.79" y="18.82" width="0.3" height="2.73" transform="translate(-13.27 13.32) rotate(-52.26)" />
			<rect class="cls-1" x="5.96" y="18.34" width="1.52" height="0.3" transform="translate(-12.01 12.49) rotate(-52.26)" />
			<rect class="cls-1" x="7.05" y="18.71" width="0.3" height="0.3" transform="translate(-12.12 13.01) rotate(-52.26)" />
			<rect class="cls-1" x="7.4" y="18.83" width="0.3" height="2.12" transform="translate(-12.8 13.69) rotate(-52.26)" />
			<rect class="cls-1" x="8.27" y="16.91" width="0.3" height="2.73" transform="translate(28.03 22.79) rotate(127.74)" />
			<rect class="cls-1" x="8.14" y="17.87" width="0.3" height="2.12" transform="translate(28.34 23.97) rotate(127.74)" />
			<rect class="cls-1" x="1.79" y="23.13" width="0.3" height="0.61" transform="translate(-17.78 10.62) rotate(-52.26)" />
			<rect class="cls-1" x="2.16" y="22.65" width="0.3" height="0.61" transform="translate(-17.25 10.73) rotate(-52.26)" />
			<rect class="cls-1" x="3.34" y="23.27" width="0.3" height="2.73" transform="translate(-18.13 12.32) rotate(-52.26)" />
			<rect class="cls-1" x="3.72" y="22.79" width="0.3" height="2.73" transform="translate(-17.6 12.43) rotate(-52.26)" />
			<rect class="cls-1" x="13.69" y="10.41" width="0.3" height="2.73" transform="translate(-3.94 15.51) rotate(-52.26)" />
			<rect class="cls-1" x="12.86" y="9.92" width="1.52" height="0.3" transform="translate(-2.68 14.68) rotate(-52.26)" />
			<rect class="cls-1" x="14.08" y="9.33" width="1.52" height="0.3" transform="matrix(-0.79, -0.61, 0.61, -0.79, 20.78, 26.06)" />
			<rect class="cls-1" x="14.06" y="10.53" width="0.3" height="1.52" transform="translate(-3.42 15.62) rotate(-52.26)" />
			<rect class="cls-1" x="14.66" y="11.16" width="2.12" height="0.3" transform="translate(34.29 5.8) rotate(127.74)" />
			<rect class="cls-1" x="14.67" y="10.55" width="1.52" height="0.3" transform="translate(33.34 5.05) rotate(127.74)" />
			<rect class="cls-1" x="14.31" y="10.42" width="0.91" height="0.3" transform="translate(-2.63 15.78) rotate(-52.26)" />
			<rect class="cls-1" x="20.57" y="1.51" width="0.3" height="2.73" transform="translate(5.77 17.5) rotate(-52.26)" />
			<rect class="cls-1" x="21.67" y="2.5" width="1.52" height="0.3" transform="translate(6.6 18.76) rotate(-52.26)" />
			<rect class="cls-1" x="21.79" y="2.13" width="0.3" height="0.3" transform="translate(6.71 18.24) rotate(-52.26)" />
			<rect class="cls-1" x="20.94" y="1.64" width="0.3" height="1.52" transform="translate(6.29 17.61) rotate(-52.26)" />
			<rect class="cls-1" x="22.78" y="-0.76" width="0.3" height="4.55" transform="translate(38.15 -15.69) rotate(127.74)" />
			<rect class="cls-1" x="19.75" y="1.02" width="1.52" height="0.3" transform="translate(33.98 -14.33) rotate(127.74)" />
			<rect class="cls-1" x="20.83" y="1.39" width="0.3" height="0.3" transform="translate(35.05 -14.11) rotate(127.74)" />
			<rect class="cls-1" x="21.68" y="0.68" width="0.3" height="1.52" transform="translate(36.34 -14.96) rotate(127.74)" />
			<rect class="cls-1" x="23.36" y="2.28" width="0.3" height="0.91" transform="translate(6.96 19.66) rotate(-52.26)" />
			<rect class="cls-1" x="22.25" y="3.73" width="1.52" height="0.3" transform="translate(40.16 -11.95) rotate(127.74)" />
			<rect class="cls-1" x="22.62" y="3.86" width="2.12" height="0.3" transform="translate(41.34 -12.26) rotate(127.74)" />
			<rect class="cls-1" x="17.17" y="5.9" width="0.3" height="2.73" transform="translate(33.67 -1.98) rotate(127.74)" />
			<rect class="cls-1" x="16.78" y="8.82" width="1.52" height="0.3" transform="translate(35.37 0.59) rotate(127.74)" />
			<rect class="cls-1" x="16.91" y="8.45" width="0.3" height="0.3" transform="translate(34.3 0.37) rotate(127.74)" />
			<rect class="cls-1" x="16.8" y="6.99" width="0.3" height="1.52" transform="translate(33.45 -0.92) rotate(127.74)" />
			<rect class="cls-1" x="16.4" y="7.47" width="0.3" height="4.55" transform="matrix(0.61, -0.79, 0.79, 0.61, -1.28, 16.87)" />
			<rect class="cls-1" x="14.86" y="7.33" width="1.52" height="0.3" transform="translate(0.14 15.26) rotate(-52.26)" />
			<rect class="cls-1" x="15.95" y="7.7" width="0.3" height="0.3" transform="translate(0.03 15.78) rotate(-52.26)" />
			<rect class="cls-1" x="16.06" y="7.95" width="0.3" height="1.52" transform="translate(-0.6 16.2) rotate(-52.26)" />
			<rect class="cls-1" x="17.97" y="9.43" width="0.3" height="1.52" transform="translate(37.28 2.09) rotate(127.74)" />
			<rect class="cls-1" x="18.57" y="4.09" width="0.3" height="2.73" transform="translate(2.95 16.92) rotate(-52.26)" />
			<rect class="cls-1" x="17.75" y="3.6" width="1.52" height="0.3" transform="translate(4.21 16.09) rotate(-52.26)" />
			<rect class="cls-1" x="18.83" y="3.97" width="0.3" height="0.3" transform="translate(4.1 16.62) rotate(-52.26)" />
			<rect class="cls-1" x="19.18" y="4.1" width="0.3" height="2.12" transform="translate(3.42 17.29) rotate(-52.26)" />
			<rect class="cls-1" x="20.06" y="2.17" width="0.3" height="2.73" transform="translate(35.37 -10.28) rotate(127.74)" />
			<rect class="cls-1" x="19.92" y="3.14" width="0.3" height="2.12" transform="translate(35.69 -9.1) rotate(127.74)" />
			<rect class="cls-1" x="10.97" y="11.52" width="0.3" height="4.55" transform="translate(-6.6 14.15) rotate(-52.26)" />
			<rect class="cls-1" x="11.1" y="11.16" width="0.3" height="3.94" transform="translate(-6.02 13.99) rotate(-52.26)" />
			<rect class="cls-1" x="12.67" y="13.13" width="1.52" height="0.3" transform="translate(-5.3 15.78) rotate(-52.26)" />
			<rect class="cls-1" x="12.66" y="13.75" width="2.12" height="0.3" transform="translate(-5.67 16.25) rotate(-52.26)" />
			<rect class="cls-1" x="16.13" y="5.09" width="0.3" height="0.61" transform="translate(2.05 14.97) rotate(-52.26)" />
			<rect class="cls-1" x="16.5" y="4.61" width="0.3" height="0.61" transform="translate(2.57 15.07) rotate(-52.26)" />
			<rect class="cls-1" x="17.69" y="5.24" width="0.3" height="2.73" transform="translate(1.7 16.67) rotate(-52.26)" />
			<rect class="cls-1" x="18.06" y="4.76" width="0.3" height="2.73" transform="translate(2.22 16.77) rotate(-52.26)" />
		</g>
		<g id="Layer_3" data-name="Layer 3">
			<rect class="cls-1" x="14.6" y="0.21" width="2.25" height="33.75" transform="translate(13.74 -6.05) rotate(37.74)" />
			<rect class="cls-1" x="26.85" y="9.01" width="11.25" height="2.25" transform="translate(13 -17.76) rotate(37.74)" />
			<rect class="cls-1" x="28.6" y="12.57" width="2.25" height="2.25" transform="translate(14.6 -15.33) rotate(37.74)" />
			<rect class="cls-1" x="18.16" y="7.46" width="2.25" height="24.75" transform="translate(16.17 -7.65) rotate(37.74)" />
			<rect class="cls-1" x="28.83" y="11.22" width="2.25" height="33.75" transform="translate(36.45 68.66) rotate(-142.26)" />
			<rect class="cls-1" x="25.27" y="12.97" width="2.25" height="24.75" transform="translate(31.76 61.55) rotate(-142.26)" />
			<rect class="cls-1" x="7.57" y="33.92" width="11.25" height="2.25" transform="translate(24.21 -0.75) rotate(37.74)" />
			<rect class="cls-1" x="14.83" y="30.36" width="2.25" height="2.25" transform="translate(22.61 -3.18) rotate(37.74)" />
			<rect class="cls-1" x="23.21" y="14.51" width="2.25" height="27" transform="translate(22.24 -9.03) rotate(37.74)" />
			<rect class="cls-1" x="39.07" y="19.34" width="13.5" height="2.25" transform="translate(22.11 -23.77) rotate(37.74)" />
			<rect class="cls-1" x="36.32" y="22.9" width="13.5" height="2.25" transform="translate(23.71 -21.34) rotate(37.74)" />
			<rect class="cls-1" x="37.09" y="31.39" width="4.5" height="2.25" transform="translate(28.13 -17.28) rotate(37.74)" />
			<rect class="cls-1" x="34.34" y="34.95" width="4.5" height="2.25" transform="translate(29.73 -14.85) rotate(37.74)" />
			<rect class="cls-1" x="42.78" y="29.66" width="2.25" height="27" transform="translate(35.6 -17.84) rotate(37.74)" />
			<rect class="cls-1" x="26.08" y="19.28" width="2.25" height="24.75" transform="translate(25.07 -10.03) rotate(37.74)" />
			<rect class="cls-1" x="38.53" y="28.92" width="2.25" height="24.75" transform="translate(33.57 -15.63) rotate(37.74)" />
		</g>
	</g>
</svg>
