<svg id="Layer_1" data-name="Layer 1" xmlns="http://www.w3.org/2000/svg" xmlns:xlink="http://www.w3.org/1999/xlink" viewBox="0 0 558.73 111.81"><defs><style>.cls-1{fill:#45c8f5;}</style></defs><title>logo</title><image width="357" height="362" transform="scale(0.31)" xlink:href="MMP210_Leping_Jiang-master/img/Untitled-1%20%5BRecovered%5D2.png"/><rect class="cls-1" x="283.28" y="36.57" width="3.87" height="34.81"/><rect class="cls-1" x="291.01" y="67.51" width="19.34" height="3.87"/><rect class="cls-1" x="298.75" y="59.77" width="3.87" height="3.87"/><rect class="cls-1" x="291.01" y="44.3" width="3.87" height="19.34"/><rect class="cls-1" x="319.92" y="288.19" width="3.87" height="58.01" transform="translate(638 382.77) rotate(180)"/><rect class="cls-1" x="296.71" y="288.19" width="19.34" height="3.87" transform="translate(607.06 328.63) rotate(180)"/><rect class="cls-1" x="304.45" y="295.93" width="3.87" height="3.87" transform="translate(607.06 344.1) rotate(180)"/><rect class="cls-1" x="312.18" y="295.93" width="3.87" height="19.34" transform="translate(622.53 359.57) rotate(180)"/><rect class="cls-1" x="306.48" y="75.24" width="3.87" height="11.6"/><rect class="cls-1" x="288.98" y="334.6" width="19.34" height="3.87" transform="translate(591.59 421.45) rotate(180)"/><rect class="cls-1" x="288.98" y="342.34" width="27.07" height="3.87" transform="translate(599.33 436.92) rotate(180)"/><rect class="cls-1" x="188.31" y="36.57" width="3.87" height="34.81"/><rect class="cls-1" x="196.04" y="36.57" width="19.34" height="3.87"/><rect class="cls-1" x="203.78" y="44.3" width="3.87" height="3.87"/><rect class="cls-1" x="196.04" y="44.3" width="3.87" height="19.34"/><rect class="cls-1" x="224.95" y="288.19" width="3.87" height="34.81" transform="translate(448.06 359.57) rotate(-180)"/><rect class="cls-1" x="232.68" y="319.13" width="7.74" height="3.87" transform="translate(467.4 390.51) rotate(-180)"/><rect class="cls-1" x="232.68" y="311.4" width="7.74" height="3.87" transform="translate(467.4 375.04) rotate(-180)"/><rect class="cls-1" x="217.21" y="295.93" width="3.87" height="19.34" transform="translate(432.59 359.57) rotate(-180)"/><rect class="cls-1" x="203.78" y="59.77" width="3.87" height="3.87"/><rect class="cls-1" x="196.04" y="67.51" width="19.34" height="3.87"/><rect class="cls-1" x="128.14" y="48.17" width="3.87" height="23.21"/><rect class="cls-1" x="135.88" y="48.17" width="3.87" height="15.47"/><rect class="cls-1" x="164.79" y="264.99" width="3.87" height="58.01" transform="translate(327.74 336.36) rotate(-180)"/><rect class="cls-1" x="141.58" y="319.13" width="19.34" height="3.87" transform="translate(296.8 390.51) rotate(-180)"/><rect class="cls-1" x="149.32" y="311.4" width="3.87" height="3.87" transform="translate(296.8 375.04) rotate(-180)"/><rect class="cls-1" x="157.05" y="264.99" width="3.87" height="50.28" transform="translate(312.27 328.63) rotate(-180)"/><rect class="cls-1" x="241.59" y="36.57" width="3.87" height="34.81"/><rect class="cls-1" x="249.33" y="36.57" width="19.34" height="3.87"/><rect class="cls-1" x="257.06" y="44.3" width="3.87" height="3.87"/><rect class="cls-1" x="249.33" y="44.3" width="3.87" height="27.07"/><rect class="cls-1" x="278.24" y="288.19" width="3.87" height="34.81" transform="translate(554.64 359.57) rotate(-180)"/><rect class="cls-1" x="270.5" y="295.93" width="3.87" height="27.07" transform="translate(539.17 367.3) rotate(-180)"/><rect class="cls-1" x="169.83" y="24.96" width="3.87" height="7.74"/><rect class="cls-1" x="177.56" y="24.96" width="3.87" height="7.74"/><rect class="cls-1" x="169.83" y="36.57" width="3.87" height="34.81"/><rect class="cls-1" x="177.56" y="36.57" width="3.87" height="34.81"/><rect class="cls-1" x="380.39" y="40.43" width="3.87" height="34.81"/><rect class="cls-1" x="388.13" y="40.43" width="19.34" height="3.87"/><rect class="cls-1" x="409.3" y="299.8" width="19.34" height="3.87" transform="translate(111.54 469.08) rotate(-90)"/><rect class="cls-1" x="388.13" y="48.17" width="3.87" height="19.34"/><rect class="cls-1" x="393.83" y="323" width="27.07" height="3.87" transform="translate(809.04 398.24) rotate(-180)"/><rect class="cls-1" x="401.57" y="315.27" width="19.34" height="3.87" transform="translate(816.77 382.77) rotate(-180)"/><rect class="cls-1" x="395.86" y="55.9" width="11.6" height="3.87"/><rect class="cls-1" x="523.92" y="40.43" width="3.87" height="34.81"/><rect class="cls-1" x="531.66" y="71.37" width="19.34" height="3.87"/><rect class="cls-1" x="539.39" y="63.64" width="3.87" height="3.87"/><rect class="cls-1" x="531.66" y="48.17" width="3.87" height="19.34"/><rect class="cls-1" x="560.57" y="292.06" width="3.87" height="58.01" transform="translate(1119.3 390.51) rotate(180)"/><rect class="cls-1" x="537.36" y="292.06" width="19.34" height="3.87" transform="translate(1088.36 336.36) rotate(180)"/><rect class="cls-1" x="545.1" y="299.8" width="3.87" height="3.87" transform="translate(1088.36 351.83) rotate(180)"/><rect class="cls-1" x="552.83" y="299.8" width="3.87" height="19.34" transform="translate(1103.83 367.3) rotate(180)"/><rect class="cls-1" x="547.13" y="79.11" width="3.87" height="11.6"/><rect class="cls-1" x="529.63" y="338.47" width="19.34" height="3.87" transform="translate(1072.89 429.18) rotate(180)"/><rect class="cls-1" x="529.63" y="346.21" width="27.07" height="3.87" transform="translate(1080.63 444.65) rotate(180)"/><rect class="cls-1" x="458.72" y="292.06" width="3.87" height="34.81" transform="translate(915.61 367.3) rotate(-180)"/><rect class="cls-1" x="435.52" y="323" width="19.34" height="3.87" transform="translate(884.67 398.24) rotate(-180)"/><rect class="cls-1" x="443.25" y="315.27" width="3.87" height="3.87" transform="translate(884.67 382.77) rotate(-180)"/><rect class="cls-1" x="450.99" y="299.8" width="3.87" height="19.34" transform="translate(900.14 367.3) rotate(-180)"/><rect class="cls-1" x="422.08" y="40.43" width="3.87" height="58.01"/><rect class="cls-1" x="429.81" y="40.43" width="19.34" height="3.87"/><rect class="cls-1" x="437.55" y="48.17" width="3.87" height="3.87"/><rect class="cls-1" x="429.81" y="48.17" width="3.87" height="19.34"/><rect class="cls-1" x="435.52" y="330.74" width="3.87" height="19.34" transform="translate(869.2 429.18) rotate(-180)"/><rect class="cls-1" x="482.24" y="40.43" width="3.87" height="34.81"/><rect class="cls-1" x="489.98" y="40.43" width="19.34" height="3.87"/><rect class="cls-1" x="497.71" y="48.17" width="3.87" height="3.87"/><rect class="cls-1" x="489.98" y="48.17" width="3.87" height="27.07"/><rect class="cls-1" x="518.88" y="292.06" width="3.87" height="34.81" transform="translate(1035.93 367.3) rotate(-180)"/><rect class="cls-1" x="511.15" y="299.8" width="3.87" height="27.07" transform="translate(1020.46 375.04) rotate(-180)"/><rect class="cls-1" x="338.71" y="17.23" width="3.87" height="58.01"/><rect class="cls-1" x="346.45" y="17.23" width="3.87" height="50.28"/><rect class="cls-1" x="354.18" y="63.64" width="19.34" height="3.87"/><rect class="cls-1" x="346.45" y="71.37" width="27.07" height="3.87"/><rect class="cls-1" x="463.76" y="28.83" width="3.87" height="7.74"/><rect class="cls-1" x="471.5" y="28.83" width="3.87" height="7.74"/><rect class="cls-1" x="463.76" y="40.43" width="3.87" height="34.81"/><rect class="cls-1" x="471.5" y="40.43" width="3.87" height="34.81"/></svg>