<svg xmlns="http://www.w3.org/2000/svg" viewBox="0 0 122.9 33.75"><defs><style>.cls-1{fill:#31869e;}</style></defs><title>leping_work</title><g id="Layer_2" data-name="Layer 2"><g id="Layer_3" data-name="Layer 3"><rect class="cls-1" x="64" width="2.15" height="33.75"/><rect class="cls-1" x="68.4" y="4.5" width="2.25" height="29.25"/><rect class="cls-1" x="68.4" width="11.25" height="2.25"/><rect class="cls-1" x="72.9" y="13.5" width="2.25" height="2.25"/><rect class="cls-1" x="72.9" y="18" width="2.25" height="2.25"/><rect class="cls-1" x="72.9" y="4.5" width="6.75" height="2.25"/><rect class="cls-1" x="77.4" y="9" width="2.25" height="4.5"/><rect class="cls-1" x="81.9" width="2.25" height="13.5"/><rect class="cls-1" x="79.65" y="22.5" width="2.25" height="6.75" transform="translate(54.9 106.65) rotate(-90)"/><rect class="cls-1" x="79.65" y="18" width="2.25" height="6.75" transform="translate(59.4 102.15) rotate(-90)"/><rect class="cls-1" x="83.03" y="30.38" width="4.5" height="2.25" transform="translate(116.78 -53.78) rotate(90)"/><rect class="cls-1" x="86.4" y="29.25" width="6.75" height="2.25" transform="translate(120.15 -59.4) rotate(90)"/><rect class="cls-1" x="38.75" width="2.25" height="33.75"/><rect class="cls-1" x="43.25" width="11.25" height="2.25"/><rect class="cls-1" x="47.75" y="4.5" width="2.25" height="2.25"/><rect class="cls-1" x="43.25" y="4.5" width="2.25" height="24.75"/><rect class="cls-1" x="56.75" width="2.25" height="33.75" transform="translate(115.75 33.75) rotate(-180)"/><rect class="cls-1" x="52.25" y="4.5" width="2.25" height="24.75" transform="translate(106.75 33.75) rotate(-180)"/><rect class="cls-1" x="43.25" y="31.5" width="11.25" height="2.25"/><rect class="cls-1" x="47.75" y="27" width="2.25" height="2.25"/><rect class="cls-1" width="2.25" height="33.75"/><rect class="cls-1" x="31.5" width="2.25" height="33.75"/><rect class="cls-1" x="4.5" width="2.25" height="29.25"/><rect class="cls-1" x="27" width="2.25" height="29.25"/><rect class="cls-1" x="4.5" y="31.5" width="24.75" height="2.25"/><rect class="cls-1" x="9" y="27" width="15.75" height="2.25"/><rect class="cls-1" x="13.5" y="6.75" width="2.25" height="18"/><rect class="cls-1" x="18" y="6.75" width="2.25" height="18"/><rect class="cls-1" x="95.9" width="2.25" height="33.75"/><rect class="cls-1" x="100.4" width="2.25" height="33.75"/><rect class="cls-1" x="104.9" y="13.5" width="2.25" height="2.25"/><rect class="cls-1" x="104.9" y="18" width="2.25" height="2.25"/><rect class="cls-1" x="107.15" y="9" width="6.75" height="2.25" transform="translate(100.4 120.65) rotate(-90)"/><rect class="cls-1" x="112.78" y="10.12" width="4.5" height="2.25" transform="translate(103.78 126.28) rotate(-90)"/><rect class="cls-1" x="107.15" y="22.5" width="6.75" height="2.25" transform="translate(86.9 134.15) rotate(-90)"/><rect class="cls-1" x="112.78" y="21.37" width="4.5" height="2.25" transform="translate(92.53 137.53) rotate(-90)"/><rect class="cls-1" x="116.15" width="6.75" height="2.25"/><rect class="cls-1" x="116.15" y="4.5" width="6.75" height="2.25"/><rect class="cls-1" x="116.15" y="27" width="6.75" height="2.25"/><rect class="cls-1" x="116.15" y="31.5" width="6.75" height="2.25"/></g></g></svg>