<svg xmlns="http://www.w3.org/2000/svg" viewBox="0 0 129.75 33.75"><defs><style>.cls-1{fill:#231f20;}</style></defs><title>mmds</title><g id="Layer_2" data-name="Layer 2"><g id="Layer_1-2" data-name="Layer 1"><rect class="cls-1" x="77.5" width="2.25" height="33.75"/><rect class="cls-1" x="82" y="4.5" width="2.25" height="24.75"/><rect class="cls-1" x="86.5" y="4.5" width="9" height="2.25"/><rect class="cls-1" x="82" width="15.75" height="2.25"/><rect class="cls-1" x="86.5" y="27" width="9" height="2.25"/><rect class="cls-1" x="82" y="31.5" width="15.75" height="2.25"/><rect class="cls-1" x="97.75" y="6.75" width="2.25" height="20.25"/><rect class="cls-1" x="102.25" y="6.75" width="2.25" height="20.25"/><rect class="cls-1" x="116.25" y="13.5" width="2.25" height="15.75"/><rect class="cls-1" x="120.75" y="18" width="2.25" height="15.75"/><rect class="cls-1" x="120.65" y="13.5" width="9.1" height="2.25"/><rect class="cls-1" x="125.15" y="18" width="4.6" height="2.25"/><rect class="cls-1" x="109.5" y="31.5" width="9.1" height="2.25" transform="translate(228.1 65.25) rotate(-180)"/><rect class="cls-1" x="109.5" y="27" width="4.6" height="2.25" transform="translate(223.6 56.25) rotate(-180)"/><rect class="cls-1" width="2.25" height="33.75"/><rect class="cls-1" x="31.5" width="2.25" height="33.75"/><rect class="cls-1" x="4.5" y="4.5" width="2.25" height="29.25"/><rect class="cls-1" x="27" y="4.5" width="2.25" height="29.25"/><rect class="cls-1" x="4.5" width="24.75" height="2.25"/><rect class="cls-1" x="9" y="4.5" width="15.75" height="2.25"/><rect class="cls-1" x="13.5" y="9" width="2.25" height="18"/><rect class="cls-1" x="18" y="9" width="2.25" height="18"/><rect class="cls-1" x="38.75" width="2.25" height="33.75"/><rect class="cls-1" x="70.25" width="2.25" height="33.75"/><rect class="cls-1" x="43.25" y="4.5" width="2.25" height="29.25"/><rect class="cls-1" x="65.75" y="4.5" width="2.25" height="29.25"/><rect class="cls-1" x="43.25" width="24.75" height="2.25"/><rect class="cls-1" x="47.75" y="4.5" width="15.75" height="2.25"/><rect class="cls-1" x="52.25" y="9" width="2.25" height="18"/><rect class="cls-1" x="56.75" y="9" width="2.25" height="18"/></g></g></svg>