<svg xmlns="http://www.w3.org/2000/svg" viewBox="0 0 168.25 33.75"><defs><style>.cls-1{fill:#231f20;}</style></defs><title>pctitle</title><g id="Layer_2" data-name="Layer 2"><g id="Layer_4" data-name="Layer 4"><rect class="cls-1" x="32" width="2.25" height="33.75"/><rect class="cls-1" x="36.5" y="4.5" width="2.25" height="24.75"/><rect class="cls-1" x="41" y="4.5" width="11.25" height="2.25"/><rect class="cls-1" x="36.5" width="15.75" height="2.25"/><rect class="cls-1" x="41" y="27" width="11.25" height="2.25"/><rect class="cls-1" x="36.5" y="31.5" width="15.75" height="2.25"/><rect class="cls-1" x="24.75" width="2.25" height="20.25" transform="translate(51.75 20.25) rotate(-180)"/><rect class="cls-1" x="4.5" y="18" width="18" height="2.25" transform="translate(27 38.25) rotate(-180)"/><rect class="cls-1" x="9" y="13.5" width="9" height="2.25" transform="translate(27 29.25) rotate(-180)"/><rect class="cls-1" x="20.25" y="4.5" width="2.25" height="11.25" transform="translate(42.75 20.25) rotate(-180)"/><rect class="cls-1" width="2.25" height="33.75"/><rect class="cls-1" x="4.5" width="18" height="2.25"/><rect class="cls-1" x="9" y="4.5" width="9" height="2.25"/><rect class="cls-1" x="4.5" y="4.5" width="2.25" height="11.25"/><rect class="cls-1" x="4.5" y="22.5" width="2.25" height="11.25" transform="translate(11.25 56.25) rotate(-180)"/><rect class="cls-1" x="148" y="13.5" width="2.25" height="20.25"/><rect class="cls-1" x="152.5" y="13.5" width="11.25" height="2.25"/><rect class="cls-1" x="157" y="18" width="2.25" height="2.25"/><rect class="cls-1" x="152.5" y="18" width="2.25" height="11.25"/><rect class="cls-1" x="166" width="2.25" height="33.75" transform="translate(334.25 33.75) rotate(-180)"/><rect class="cls-1" x="152.5" y="31.5" width="11.25" height="2.25" transform="translate(316.25 65.25) rotate(-180)"/><rect class="cls-1" x="157" y="27" width="2.25" height="2.25" transform="translate(316.25 56.25) rotate(-180)"/><rect class="cls-1" x="161.5" y="18" width="2.25" height="11.25" transform="translate(325.25 47.25) rotate(-180)"/><rect class="cls-1" x="161.5" width="2.25" height="11.25"/><rect class="cls-1" x="85.25" y="20.25" width="2.25" height="13.5" transform="translate(172.75 54) rotate(-180)"/><rect class="cls-1" x="71.75" y="13.5" width="11.25" height="2.25" transform="translate(154.75 29.25) rotate(-180)"/><rect class="cls-1" x="71.75" y="18" width="11.25" height="2.25" transform="translate(154.75 38.25) rotate(-180)"/><rect class="cls-1" x="80.75" y="22.5" width="2.25" height="6.75" transform="translate(163.75 51.75) rotate(-180)"/><rect class="cls-1" x="67.25" width="2.25" height="33.75"/><rect class="cls-1" x="71.75" y="31.5" width="11.25" height="2.25"/><rect class="cls-1" x="76.25" y="27" width="2.25" height="2.25"/><rect class="cls-1" x="71.75" y="22.5" width="2.25" height="6.75"/><rect class="cls-1" x="85.25" width="2.25" height="13.5" transform="translate(172.75 13.5) rotate(180)"/><rect class="cls-1" x="80.75" y="4.5" width="2.25" height="6.75" transform="translate(163.75 15.75) rotate(180)"/><rect class="cls-1" x="71.75" width="11.25" height="2.25"/><rect class="cls-1" x="76.25" y="4.5" width="2.25" height="2.25"/><rect class="cls-1" x="71.75" y="4.5" width="2.25" height="6.75"/><rect class="cls-1" x="92.5" y="13.5" width="2.25" height="20.25"/><rect class="cls-1" x="97" y="31.5" width="11.25" height="2.25"/><rect class="cls-1" x="101.5" y="27" width="2.25" height="2.25"/><rect class="cls-1" x="97" y="13.5" width="2.25" height="15.75"/><rect class="cls-1" x="110.5" y="13.5" width="2.25" height="20.25" transform="translate(223.25 47.25) rotate(180)"/><rect class="cls-1" x="106" y="13.5" width="2.25" height="15.75" transform="translate(214.25 42.75) rotate(180)"/><rect class="cls-1" x="117.75" y="6.75" width="2.25" height="4.5"/><rect class="cls-1" x="122.25" y="6.75" width="2.25" height="4.5"/><rect class="cls-1" x="117.75" y="13.5" width="2.25" height="20.25"/><rect class="cls-1" x="122.25" y="13.5" width="2.25" height="20.25"/><rect class="cls-1" x="129.5" width="2.25" height="33.75"/><rect class="cls-1" x="134" width="2.25" height="18"/><rect class="cls-1" x="136.25" y="20.25" width="2.25" height="9"/><rect class="cls-1" x="134" y="31.5" width="9" height="2.25"/><rect class="cls-1" x="140.75" y="20.25" width="2.25" height="9"/></g></g></svg>