<svg xmlns="http://www.w3.org/2000/svg" viewBox="0 0 207.75 33.75"><defs><style>.cls-1{fill:#35869e;}</style></defs><title>portfoliol</title><g id="Layer_2" data-name="Layer 2"><g id="Layer_1-2" data-name="Layer 1"><rect class="cls-1" x="120.12" y="-5.62" width="2.25" height="13.5" transform="translate(120.12 122.37) rotate(-90)"/><rect class="cls-1" x="122.37" y="1.13" width="2.25" height="9" transform="translate(117.87 129.12) rotate(-90)"/><rect class="cls-1" x="101" y="18" width="29.25" height="2.25" transform="translate(96.5 134.75) rotate(-90)"/><rect class="cls-1" x="107.75" y="20.25" width="24.75" height="2.25" transform="translate(98.75 141.5) rotate(-90)"/><rect class="cls-1" x="124.62" y="16.87" width="2.25" height="4.5" transform="translate(106.62 144.87) rotate(-90)"/><rect class="cls-1" x="124.62" y="12.37" width="2.25" height="4.5" transform="translate(111.12 140.37) rotate(-90)"/><rect class="cls-1" x="108.87" y="16.87" width="2.25" height="4.5" transform="translate(90.87 129.12) rotate(-90)"/><rect class="cls-1" x="108.87" y="12.38" width="2.25" height="4.5" transform="translate(95.37 124.62) rotate(-90)"/><rect class="cls-1" x="57.25" y="13.5" width="2.25" height="20.25"/><rect class="cls-1" x="61.75" y="13.5" width="15.75" height="2.25"/><rect class="cls-1" x="66.25" y="18" width="11.25" height="2.25"/><rect class="cls-1" x="61.75" y="18" width="2.25" height="15.75"/><rect class="cls-1" x="32" y="13.5" width="2.25" height="20.25"/><rect class="cls-1" x="36.5" y="13.5" width="11.25" height="2.25"/><rect class="cls-1" x="41" y="18" width="2.25" height="2.25"/><rect class="cls-1" x="36.5" y="18" width="2.25" height="11.25"/><rect class="cls-1" x="50" y="13.5" width="2.25" height="20.25" transform="translate(102.25 47.25) rotate(-180)"/><rect class="cls-1" x="45.5" y="18" width="2.25" height="11.25" transform="translate(93.25 47.25) rotate(-180)"/><rect class="cls-1" x="36.5" y="31.5" width="11.25" height="2.25"/><rect class="cls-1" x="41" y="27" width="2.25" height="2.25"/><rect class="cls-1" x="24.75" width="2.25" height="20.25" transform="translate(51.75 20.25) rotate(-180)"/><rect class="cls-1" x="4.5" y="18" width="18" height="2.25" transform="translate(27 38.25) rotate(-180)"/><rect class="cls-1" x="9" y="13.5" width="9" height="2.25" transform="translate(27 29.25) rotate(-180)"/><rect class="cls-1" x="20.25" y="4.5" width="2.25" height="11.25" transform="translate(42.75 20.25) rotate(-180)"/><rect class="cls-1" width="2.25" height="33.75"/><rect class="cls-1" x="4.5" width="18" height="2.25"/><rect class="cls-1" x="9" y="4.5" width="9" height="2.25"/><rect class="cls-1" x="4.5" y="4.5" width="2.25" height="11.25"/><rect class="cls-1" x="4.5" y="22.5" width="2.25" height="11.25" transform="translate(11.25 56.25) rotate(-180)"/><rect class="cls-1" x="89.25" y="18" width="2.25" height="11.25"/><rect class="cls-1" x="93.75" y="18" width="2.25" height="6.75"/><rect class="cls-1" x="82.5" y="13.5" width="20.25" height="2.25"/><rect class="cls-1" x="82.5" y="18" width="4.5" height="2.25"/><rect class="cls-1" x="98.25" y="18" width="4.5" height="2.25"/><rect class="cls-1" x="89.25" y="6.75" width="2.25" height="4.5"/><rect class="cls-1" x="93.75" y="6.75" width="2.25" height="4.5"/><rect class="cls-1" x="93.75" y="27" width="9" height="2.25"/><rect class="cls-1" x="89.25" y="31.5" width="13.5" height="2.25"/><rect class="cls-1" x="157.25" width="2.25" height="33.75"/><rect class="cls-1" x="161.75" width="2.25" height="18"/><rect class="cls-1" x="164" y="20.25" width="2.25" height="9"/><rect class="cls-1" x="161.75" y="31.5" width="9" height="2.25"/><rect class="cls-1" x="168.5" y="20.25" width="2.25" height="9"/><rect class="cls-1" x="175.75" y="6.75" width="2.25" height="4.5"/><rect class="cls-1" x="180.25" y="6.75" width="2.25" height="4.5"/><rect class="cls-1" x="175.75" y="13.5" width="2.25" height="20.25"/><rect class="cls-1" x="180.25" y="13.5" width="2.25" height="20.25"/><rect class="cls-1" x="187.5" y="13.5" width="2.25" height="20.25"/><rect class="cls-1" x="192" y="13.5" width="11.25" height="2.25"/><rect class="cls-1" x="196.5" y="18" width="2.25" height="2.25"/><rect class="cls-1" x="192" y="18" width="2.25" height="11.25"/><rect class="cls-1" x="205.5" y="13.5" width="2.25" height="20.25" transform="translate(413.25 47.25) rotate(-180)"/><rect class="cls-1" x="201" y="18" width="2.25" height="11.25" transform="translate(404.25 47.25) rotate(-180)"/><rect class="cls-1" x="192" y="31.5" width="11.25" height="2.25"/><rect class="cls-1" x="196.5" y="27" width="2.25" height="2.25"/><rect class="cls-1" x="132" y="13.5" width="2.25" height="20.25"/><rect class="cls-1" x="136.5" y="13.5" width="11.25" height="2.25"/><rect class="cls-1" x="141" y="18" width="2.25" height="2.25"/><rect class="cls-1" x="136.5" y="18" width="2.25" height="11.25"/><rect class="cls-1" x="150" y="13.5" width="2.25" height="20.25" transform="translate(302.25 47.25) rotate(-180)"/><rect class="cls-1" x="145.5" y="18" width="2.25" height="11.25" transform="translate(293.25 47.25) rotate(-180)"/><rect class="cls-1" x="136.5" y="31.5" width="11.25" height="2.25"/><rect class="cls-1" x="141" y="27" width="2.25" height="2.25"/></g></g></svg>