<svg xmlns="http://www.w3.org/2000/svg" viewBox="0 0 226.4 33.75"><defs><style>.cls-1{fill:#35869e;}</style></defs><title>portfolioc</title><g id="Layer_2" data-name="Layer 2"><g id="Layer_1-2" data-name="Layer 1"><rect class="cls-1" x="57.25" width="2.15" height="33.75"/><rect class="cls-1" x="61.65" y="4.5" width="2.25" height="29.25"/><rect class="cls-1" x="61.65" width="11.25" height="2.25"/><rect class="cls-1" x="66.15" y="13.5" width="2.25" height="2.25"/><rect class="cls-1" x="66.15" y="18" width="2.25" height="2.25"/><rect class="cls-1" x="66.15" y="4.5" width="6.75" height="2.25"/><rect class="cls-1" x="70.65" y="9" width="2.25" height="4.5"/><rect class="cls-1" x="75.15" width="2.25" height="13.5"/><rect class="cls-1" x="72.9" y="22.5" width="2.25" height="6.75" transform="translate(48.15 99.9) rotate(-90)"/><rect class="cls-1" x="72.9" y="18" width="2.25" height="6.75" transform="translate(52.65 95.4) rotate(-90)"/><rect class="cls-1" x="76.28" y="30.38" width="4.5" height="2.25" transform="translate(110.03 -47.03) rotate(90)"/><rect class="cls-1" x="79.65" y="29.25" width="6.75" height="2.25" transform="translate(113.4 -52.65) rotate(90)"/><rect class="cls-1" x="32" width="2.25" height="33.75"/><rect class="cls-1" x="36.5" width="11.25" height="2.25"/><rect class="cls-1" x="41" y="4.5" width="2.25" height="2.25"/><rect class="cls-1" x="36.5" y="4.5" width="2.25" height="24.75"/><rect class="cls-1" x="50" width="2.25" height="33.75" transform="translate(102.25 33.75) rotate(-180)"/><rect class="cls-1" x="45.5" y="4.5" width="2.25" height="24.75" transform="translate(93.25 33.75) rotate(-180)"/><rect class="cls-1" x="36.5" y="31.5" width="11.25" height="2.25"/><rect class="cls-1" x="41" y="27" width="2.25" height="2.25"/><rect class="cls-1" x="24.75" width="2.25" height="20.25" transform="translate(51.75 20.25) rotate(-180)"/><rect class="cls-1" x="4.5" y="18" width="18" height="2.25" transform="translate(27 38.25) rotate(-180)"/><rect class="cls-1" x="9" y="13.5" width="9" height="2.25" transform="translate(27 29.25) rotate(-180)"/><rect class="cls-1" x="20.25" y="4.5" width="2.25" height="11.25" transform="translate(42.75 20.25) rotate(-180)"/><rect class="cls-1" width="2.25" height="33.75"/><rect class="cls-1" x="4.5" width="18" height="2.25"/><rect class="cls-1" x="9" y="4.5" width="9" height="2.25"/><rect class="cls-1" x="4.5" y="4.5" width="2.25" height="11.25"/><rect class="cls-1" x="4.5" y="22.5" width="2.25" height="11.25" transform="translate(11.25 56.25) rotate(-180)"/><rect class="cls-1" x="91.15" y="4.5" width="2.25" height="29.25"/><rect class="cls-1" x="95.65" y="4.5" width="2.25" height="29.25"/><rect class="cls-1" x="82.15" width="24.75" height="2.25"/><rect class="cls-1" x="82.15" y="4.5" width="6.75" height="2.25"/><rect class="cls-1" x="100.15" y="4.5" width="6.75" height="2.25"/><rect class="cls-1" x="162.4" width="2.25" height="33.75"/><rect class="cls-1" x="166.9" width="2.25" height="29.25"/><rect class="cls-1" x="171.4" y="27" width="11.25" height="2.25"/><rect class="cls-1" x="166.9" y="31.5" width="15.75" height="2.25"/><rect class="cls-1" x="187.65" width="2.25" height="33.75"/><rect class="cls-1" x="192.15" width="2.25" height="33.75"/><rect class="cls-1" x="196.65" width="2.25" height="2.25"/><rect class="cls-1" x="196.65" y="4.5" width="4.5" height="2.25"/><rect class="cls-1" x="206.15" width="2.25" height="33.75"/><rect class="cls-1" x="210.65" width="11.25" height="2.25"/><rect class="cls-1" x="215.15" y="4.5" width="2.25" height="2.25"/><rect class="cls-1" x="210.65" y="4.5" width="2.25" height="24.75"/><rect class="cls-1" x="224.15" width="2.25" height="33.75" transform="translate(450.55 33.75) rotate(-180)"/><rect class="cls-1" x="219.65" y="4.5" width="2.25" height="24.75" transform="translate(441.55 33.75) rotate(-180)"/><rect class="cls-1" x="210.65" y="31.5" width="11.25" height="2.25"/><rect class="cls-1" x="215.15" y="27" width="2.25" height="2.25"/><rect class="cls-1" x="137.15" width="2.25" height="33.75"/><rect class="cls-1" x="141.65" width="11.25" height="2.25"/><rect class="cls-1" x="146.15" y="4.5" width="2.25" height="2.25"/><rect class="cls-1" x="141.65" y="4.5" width="2.25" height="24.75"/><rect class="cls-1" x="155.15" width="2.25" height="33.75" transform="translate(312.55 33.75) rotate(-180)"/><rect class="cls-1" x="150.65" y="4.5" width="2.25" height="24.75" transform="translate(303.55 33.75) rotate(-180)"/><rect class="cls-1" x="141.65" y="31.5" width="11.25" height="2.25"/><rect class="cls-1" x="146.15" y="27" width="2.25" height="2.25"/><rect class="cls-1" x="120.9" y="-9" width="2.25" height="20.25" transform="translate(120.9 123.15) rotate(-90)"/><rect class="cls-1" x="123.15" y="-2.25" width="2.25" height="15.75" transform="translate(118.65 129.9) rotate(-90)"/><rect class="cls-1" x="98.4" y="18" width="29.25" height="2.25" transform="translate(93.9 132.15) rotate(-90)"/><rect class="cls-1" x="105.15" y="20.25" width="24.75" height="2.25" transform="translate(96.15 138.9) rotate(-90)"/><rect class="cls-1" x="122.03" y="16.87" width="2.25" height="4.5" transform="translate(104.03 142.28) rotate(-90)"/><rect class="cls-1" x="122.03" y="12.37" width="2.25" height="4.5" transform="translate(108.53 137.78) rotate(-90)"/></g></g></svg>