<svg xmlns="http://www.w3.org/2000/svg" viewBox="0 0 392.5 47.25"><defs><style>.cls-1{fill:#34869e;}</style></defs><title>ppppp</title><g id="Layer_2" data-name="Layer 2"><g id="Layer_4" data-name="Layer 4"><rect class="cls-1" x="120.12" y="-5.62" width="2.25" height="13.5" transform="translate(120.12 122.37) rotate(-90)"/><rect class="cls-1" x="122.37" y="1.13" width="2.25" height="9" transform="translate(117.87 129.12) rotate(-90)"/><rect class="cls-1" x="101" y="18" width="29.25" height="2.25" transform="translate(96.5 134.75) rotate(-90)"/><rect class="cls-1" x="107.75" y="20.25" width="24.75" height="2.25" transform="translate(98.75 141.5) rotate(-90)"/><rect class="cls-1" x="124.62" y="16.87" width="2.25" height="4.5" transform="translate(106.62 144.87) rotate(-90)"/><rect class="cls-1" x="124.62" y="12.37" width="2.25" height="4.5" transform="translate(111.12 140.37) rotate(-90)"/><rect class="cls-1" x="108.87" y="16.87" width="2.25" height="4.5" transform="translate(90.87 129.12) rotate(-90)"/><rect class="cls-1" x="108.87" y="12.38" width="2.25" height="4.5" transform="translate(95.37 124.62) rotate(-90)"/><rect class="cls-1" x="57.25" y="13.5" width="2.25" height="20.25"/><rect class="cls-1" x="61.75" y="13.5" width="15.75" height="2.25"/><rect class="cls-1" x="66.25" y="18" width="11.25" height="2.25"/><rect class="cls-1" x="61.75" y="18" width="2.25" height="15.75"/><rect class="cls-1" x="32" y="13.5" width="2.25" height="20.25"/><rect class="cls-1" x="36.5" y="13.5" width="11.25" height="2.25"/><rect class="cls-1" x="41" y="18" width="2.25" height="2.25"/><rect class="cls-1" x="36.5" y="18" width="2.25" height="11.25"/><rect class="cls-1" x="50" y="13.5" width="2.25" height="20.25" transform="translate(102.25 47.25) rotate(-180)"/><rect class="cls-1" x="45.5" y="18" width="2.25" height="11.25" transform="translate(93.25 47.25) rotate(-180)"/><rect class="cls-1" x="36.5" y="31.5" width="11.25" height="2.25"/><rect class="cls-1" x="41" y="27" width="2.25" height="2.25"/><rect class="cls-1" x="24.75" width="2.25" height="20.25" transform="translate(51.75 20.25) rotate(-180)"/><rect class="cls-1" x="4.5" y="18" width="18" height="2.25" transform="translate(27 38.25) rotate(-180)"/><rect class="cls-1" x="9" y="13.5" width="9" height="2.25" transform="translate(27 29.25) rotate(-180)"/><rect class="cls-1" x="20.25" y="4.5" width="2.25" height="11.25" transform="translate(42.75 20.25) rotate(-180)"/><rect class="cls-1" width="2.25" height="33.75"/><rect class="cls-1" x="4.5" width="18" height="2.25"/><rect class="cls-1" x="9" y="4.5" width="9" height="2.25"/><rect class="cls-1" x="4.5" y="4.5" width="2.25" height="11.25"/><rect class="cls-1" x="4.5" y="22.5" width="2.25" height="11.25" transform="translate(11.25 56.25) rotate(-180)"/><rect class="cls-1" x="89.25" y="18" width="2.25" height="11.25"/><rect class="cls-1" x="93.75" y="18" width="2.25" height="6.75"/><rect class="cls-1" x="82.5" y="13.5" width="20.25" height="2.25"/><rect class="cls-1" x="82.5" y="18" width="4.5" height="2.25"/><rect class="cls-1" x="98.25" y="18" width="4.5" height="2.25"/><rect class="cls-1" x="89.25" y="6.75" width="2.25" height="4.5"/><rect class="cls-1" x="93.75" y="6.75" width="2.25" height="4.5"/><rect class="cls-1" x="93.75" y="27" width="9" height="2.25"/><rect class="cls-1" x="89.25" y="31.5" width="13.5" height="2.25"/><rect class="cls-1" x="176.75" y="6.75" width="2.25" height="4.5"/><rect class="cls-1" x="181.25" y="6.75" width="2.25" height="4.5"/><rect class="cls-1" x="176.75" y="13.5" width="2.25" height="20.25"/><rect class="cls-1" x="181.25" y="13.5" width="2.25" height="20.25"/><rect class="cls-1" x="133" y="13.5" width="2.25" height="20.25"/><rect class="cls-1" x="137.5" y="13.5" width="11.25" height="2.25"/><rect class="cls-1" x="142" y="18" width="2.25" height="2.25"/><rect class="cls-1" x="137.5" y="18" width="2.25" height="11.25"/><rect class="cls-1" x="151" y="13.5" width="2.25" height="20.25" transform="translate(304.25 47.25) rotate(-180)"/><rect class="cls-1" x="146.5" y="18" width="2.25" height="11.25" transform="translate(295.25 47.25) rotate(-180)"/><rect class="cls-1" x="137.5" y="31.5" width="11.25" height="2.25"/><rect class="cls-1" x="142" y="27" width="2.25" height="2.25"/><rect class="cls-1" x="158.25" width="2.25" height="33.75"/><rect class="cls-1" x="162.75" width="2.25" height="18"/><rect class="cls-1" x="165" y="20.25" width="2.25" height="9"/><rect class="cls-1" x="162.75" y="31.5" width="9" height="2.25"/><rect class="cls-1" x="169.5" y="20.25" width="2.25" height="9"/><rect class="cls-1" x="188.5" y="13.5" width="2.25" height="20.25"/><rect class="cls-1" x="193" y="13.5" width="11.25" height="2.25"/><rect class="cls-1" x="197.5" y="18" width="2.25" height="2.25"/><rect class="cls-1" x="193" y="18" width="2.25" height="11.25"/><rect class="cls-1" x="206.5" y="13.5" width="2.25" height="20.25" transform="translate(415.25 47.25) rotate(-180)"/><rect class="cls-1" x="202" y="18" width="2.25" height="11.25" transform="translate(406.25 47.25) rotate(-180)"/><rect class="cls-1" x="193" y="31.5" width="11.25" height="2.25"/><rect class="cls-1" x="197.5" y="27" width="2.25" height="2.25"/><rect class="cls-1" x="321.75" y="13.5" width="2.25" height="20.25"/><rect class="cls-1" x="326.25" y="13.5" width="11.25" height="2.25"/><rect class="cls-1" x="335.25" y="18" width="11.25" height="2.25" transform="translate(321.75 360) rotate(-90)"/><rect class="cls-1" x="326.25" y="18" width="2.25" height="11.25"/><rect class="cls-1" x="326.25" y="31.5" width="15.75" height="2.25" transform="translate(668.25 65.25) rotate(-180)"/><rect class="cls-1" x="330.75" y="27" width="11.25" height="2.25" transform="translate(672.75 56.25) rotate(-180)"/><rect class="cls-1" x="330.75" y="22.5" width="6.75" height="2.25"/><rect class="cls-1" x="356" y="22.5" width="2.25" height="20.25" transform="translate(324.5 389.75) rotate(-90)"/><rect class="cls-1" x="342.5" y="22.5" width="11.25" height="2.25" transform="translate(324.5 371.75) rotate(-90)"/><rect class="cls-1" x="351.5" y="22.5" width="2.25" height="2.25" transform="translate(329 376.25) rotate(-90)"/><rect class="cls-1" x="358.25" y="20.25" width="2.25" height="15.75" transform="translate(331.25 387.5) rotate(-90)"/><rect class="cls-1" x="356" y="4.5" width="2.25" height="20.25" transform="translate(371.75 -342.5) rotate(90)"/><rect class="cls-1" x="358.25" y="11.25" width="2.25" height="15.75" transform="translate(378.5 -340.25) rotate(90)"/><rect class="cls-1" x="313.37" y="14.63" width="4.5" height="2.25" transform="translate(331.37 -299.87) rotate(90)"/><rect class="cls-1" x="308.87" y="14.63" width="4.5" height="2.25" transform="translate(326.87 -295.37) rotate(90)"/><rect class="cls-1" x="314.5" y="20.25" width="2.25" height="27" transform="translate(631.25 67.5) rotate(-180)"/><rect class="cls-1" x="310" y="20.25" width="2.25" height="11.25" transform="translate(622.25 51.75) rotate(-180)"/><rect class="cls-1" x="307.75" y="33.75" width="2.25" height="9" transform="translate(617.75 76.5) rotate(-180)"/><rect class="cls-1" x="303.25" y="45" width="9" height="2.25" transform="translate(615.5 92.25) rotate(-180)"/><rect class="cls-1" x="303.25" y="33.75" width="2.25" height="9" transform="translate(608.75 76.5) rotate(-180)"/><rect class="cls-1" x="255.75" y="13.5" width="2.25" height="20.25"/><rect class="cls-1" x="260.25" y="13.5" width="15.75" height="2.25"/><rect class="cls-1" x="264.75" y="18" width="11.25" height="2.25"/><rect class="cls-1" x="260.25" y="18" width="2.25" height="15.75"/><rect class="cls-1" x="281" y="13.5" width="2.25" height="20.25"/><rect class="cls-1" x="285.5" y="13.5" width="11.25" height="2.25"/><rect class="cls-1" x="290" y="18" width="2.25" height="2.25"/><rect class="cls-1" x="285.5" y="18" width="2.25" height="11.25"/><rect class="cls-1" x="299" y="13.5" width="2.25" height="20.25" transform="translate(600.25 47.25) rotate(-180)"/><rect class="cls-1" x="294.5" y="18" width="2.25" height="11.25" transform="translate(591.25 47.25) rotate(-180)"/><rect class="cls-1" x="285.5" y="31.5" width="11.25" height="2.25"/><rect class="cls-1" x="290" y="27" width="2.25" height="2.25"/><rect class="cls-1" x="248.5" width="2.25" height="20.25" transform="translate(499.25 20.25) rotate(-180)"/><rect class="cls-1" x="228.25" y="18" width="18" height="2.25" transform="translate(474.5 38.25) rotate(-180)"/><rect class="cls-1" x="232.75" y="13.5" width="9" height="2.25" transform="translate(474.5 29.25) rotate(-180)"/><rect class="cls-1" x="244" y="4.5" width="2.25" height="11.25" transform="translate(490.25 20.25) rotate(-180)"/><rect class="cls-1" x="223.75" width="2.25" height="33.75"/><rect class="cls-1" x="228.25" width="18" height="2.25"/><rect class="cls-1" x="232.75" y="4.5" width="9" height="2.25"/><rect class="cls-1" x="228.25" y="4.5" width="2.25" height="11.25"/><rect class="cls-1" x="228.25" y="22.5" width="2.25" height="11.25" transform="translate(458.75 56.25) rotate(-180)"/><rect class="cls-1" x="379" y="18" width="2.25" height="11.25"/><rect class="cls-1" x="383.5" y="18" width="2.25" height="6.75"/><rect class="cls-1" x="372.25" y="13.5" width="20.25" height="2.25"/><rect class="cls-1" x="372.25" y="18" width="4.5" height="2.25"/><rect class="cls-1" x="388" y="18" width="4.5" height="2.25"/><rect class="cls-1" x="379" y="6.75" width="2.25" height="4.5"/><rect class="cls-1" x="383.5" y="6.75" width="2.25" height="4.5"/><rect class="cls-1" x="383.5" y="27" width="9" height="2.25"/><rect class="cls-1" x="379" y="31.5" width="13.5" height="2.25"/></g></g></svg>