<svg xmlns="http://www.w3.org/2000/svg" viewBox="0 0 405.75 33.75"><defs><style>.cls-1{fill:#33869e;}</style></defs><title>rpja</title><g id="Layer_2" data-name="Layer 2"><g id="Layer_1-2" data-name="Layer 1"><rect class="cls-1" x="9" y="-9" width="2.25" height="20.25" transform="translate(9 11.25) rotate(-90)"/><rect class="cls-1" x="11.25" y="-2.25" width="2.25" height="15.75" transform="translate(6.75 18) rotate(-90)"/><rect class="cls-1" x="-13.5" y="18" width="29.25" height="2.25" transform="translate(-18 20.25) rotate(-90)"/><rect class="cls-1" x="-6.75" y="20.25" width="24.75" height="2.25" transform="translate(-15.75 27) rotate(-90)"/><rect class="cls-1" x="10.12" y="16.88" width="2.25" height="4.5" transform="translate(-7.88 30.38) rotate(-90)"/><rect class="cls-1" x="10.12" y="12.38" width="2.25" height="4.5" transform="translate(-3.38 25.88) rotate(-90)"/><rect class="cls-1" x="46.5" y="13.5" width="2.25" height="20.25"/><rect class="cls-1" x="51" y="13.5" width="15.75" height="2.25"/><rect class="cls-1" x="55.5" y="18" width="11.25" height="2.25"/><rect class="cls-1" x="51" y="18" width="2.25" height="15.75"/><rect class="cls-1" x="21.25" y="13.5" width="2.25" height="20.25"/><rect class="cls-1" x="25.75" y="13.5" width="11.25" height="2.25"/><rect class="cls-1" x="30.25" y="18" width="2.25" height="2.25"/><rect class="cls-1" x="25.75" y="18" width="2.25" height="11.25"/><rect class="cls-1" x="39.25" y="13.5" width="2.25" height="20.25" transform="translate(80.75 47.25) rotate(-180)"/><rect class="cls-1" x="34.75" y="18" width="2.25" height="11.25" transform="translate(71.75 47.25) rotate(-180)"/><rect class="cls-1" x="25.75" y="31.5" width="11.25" height="2.25"/><rect class="cls-1" x="30.25" y="27" width="2.25" height="2.25"/><rect class="cls-1" x="103" y="13.5" width="2.25" height="20.25"/><rect class="cls-1" x="107.5" y="31.5" width="11.25" height="2.25"/><rect class="cls-1" x="112" y="27" width="2.25" height="2.25"/><rect class="cls-1" x="107.5" y="13.5" width="2.25" height="15.75"/><rect class="cls-1" x="121" y="13.5" width="2.25" height="20.25" transform="translate(244.25 47.25) rotate(180)"/><rect class="cls-1" x="116.5" y="13.5" width="2.25" height="15.75" transform="translate(235.25 42.75) rotate(180)"/><rect class="cls-1" x="128.25" y="13.5" width="2.25" height="20.25"/><rect class="cls-1" x="132.75" y="13.5" width="11.25" height="2.25"/><rect class="cls-1" x="137.25" y="18" width="2.25" height="2.25"/><rect class="cls-1" x="132.75" y="18" width="2.25" height="15.75"/><rect class="cls-1" x="146.25" y="13.5" width="2.25" height="20.25" transform="translate(294.75 47.25) rotate(-180)"/><rect class="cls-1" x="141.75" y="18" width="2.25" height="15.75" transform="translate(285.75 51.75) rotate(-180)"/><rect class="cls-1" x="90.75" y="-9" width="2.25" height="20.25" transform="translate(90.75 93) rotate(-90)"/><rect class="cls-1" x="93" y="-2.25" width="2.25" height="15.75" transform="translate(88.5 99.75) rotate(-90)"/><rect class="cls-1" x="68.25" y="18" width="29.25" height="2.25" transform="translate(63.75 102) rotate(-90)"/><rect class="cls-1" x="75" y="20.25" width="24.75" height="2.25" transform="translate(66 108.75) rotate(-90)"/><rect class="cls-1" x="91.87" y="16.88" width="2.25" height="4.5" transform="translate(73.87 112.12) rotate(-90)"/><rect class="cls-1" x="91.87" y="12.38" width="2.25" height="4.5" transform="translate(78.37 107.62) rotate(-90)"/><rect class="cls-1" x="207.25" width="2.25" height="33.75"/><rect class="cls-1" x="211.75" y="4.5" width="2.25" height="24.75"/><rect class="cls-1" x="216.25" y="4.5" width="9" height="2.25"/><rect class="cls-1" x="211.75" width="15.75" height="2.25"/><rect class="cls-1" x="216.25" y="27" width="9" height="2.25"/><rect class="cls-1" x="211.75" y="31.5" width="15.75" height="2.25"/><rect class="cls-1" x="227.5" y="6.75" width="2.25" height="20.25"/><rect class="cls-1" x="232" y="6.75" width="2.25" height="20.25"/><rect class="cls-1" x="191" y="-9" width="2.25" height="20.25" transform="translate(191 193.25) rotate(-90)"/><rect class="cls-1" x="188.75" y="-2.25" width="2.25" height="15.75" transform="translate(184.25 195.5) rotate(-90)"/><rect class="cls-1" x="188.75" y="15.75" width="24.75" height="2.25" transform="translate(184.25 218) rotate(-90)"/><rect class="cls-1" x="195.5" y="9" width="2.25" height="2.25" transform="translate(186.5 206.75) rotate(-90)"/><rect class="cls-1" x="192.12" y="10.13" width="2.25" height="9" transform="translate(178.62 207.87) rotate(-90)"/><rect class="cls-1" x="191" y="22.5" width="2.25" height="20.25" transform="translate(224.75 -159.5) rotate(90)"/><rect class="cls-1" x="188.75" y="20.25" width="2.25" height="15.75" transform="translate(218 -161.75) rotate(90)"/><rect class="cls-1" x="195.5" y="22.5" width="2.25" height="2.25" transform="translate(220.25 -173) rotate(90)"/><rect class="cls-1" x="192.12" y="14.62" width="2.25" height="9" transform="translate(212.37 -174.12) rotate(90)"/><rect class="cls-1" x="172.5" y="29.25" width="2.25" height="6.75" transform="translate(141 206.25) rotate(-90)"/><rect class="cls-1" x="172.5" y="-2.25" width="2.25" height="6.75" transform="translate(172.5 174.75) rotate(-90)"/><rect class="cls-1" x="171.37" y="25.88" width="2.25" height="4.5" transform="translate(144.37 200.62) rotate(-90)"/><rect class="cls-1" x="171.37" y="3.38" width="2.25" height="4.5" transform="translate(166.87 178.12) rotate(-90)"/><rect class="cls-1" x="163.5" y="24.75" width="6.75" height="2.25" transform="translate(141 192.75) rotate(-90)"/><rect class="cls-1" x="170.25" y="22.5" width="2.25" height="2.25" transform="translate(147.75 195) rotate(-90)"/><rect class="cls-1" x="161.25" y="15.75" width="6.75" height="2.25" transform="translate(147.75 181.5) rotate(-90)"/><rect class="cls-1" x="165.75" y="15.75" width="6.75" height="2.25" transform="translate(152.25 186) rotate(-90)"/><rect class="cls-1" x="163.5" y="6.75" width="6.75" height="2.25" transform="translate(159 174.75) rotate(-90)"/><rect class="cls-1" x="170.25" y="9" width="2.25" height="2.25" transform="translate(161.25 181.5) rotate(-90)"/><rect class="cls-1" x="306.5" y="13.5" width="2.25" height="20.25"/><rect class="cls-1" x="311" y="13.5" width="11.25" height="2.25"/><rect class="cls-1" x="315.5" y="18" width="2.25" height="2.25"/><rect class="cls-1" x="311" y="18" width="2.25" height="11.25"/><rect class="cls-1" x="324.5" width="2.25" height="33.75" transform="translate(651.25 33.75) rotate(-180)"/><rect class="cls-1" x="311" y="31.5" width="11.25" height="2.25" transform="translate(633.25 65.25) rotate(-180)"/><rect class="cls-1" x="315.5" y="27" width="2.25" height="2.25" transform="translate(633.25 56.25) rotate(-180)"/><rect class="cls-1" x="320" y="18" width="2.25" height="11.25" transform="translate(642.25 47.25) rotate(-180)"/><rect class="cls-1" x="320" width="2.25" height="11.25"/><rect class="cls-1" x="249.25" y="13.5" width="2.25" height="20.25"/><rect class="cls-1" x="253.75" y="13.5" width="11.25" height="2.25"/><rect class="cls-1" x="258.25" y="18" width="2.25" height="2.25"/><rect class="cls-1" x="253.75" y="18" width="2.25" height="11.25"/><rect class="cls-1" x="267.25" y="13.5" width="2.25" height="20.25" transform="translate(536.75 47.25) rotate(-180)"/><rect class="cls-1" x="271.75" y="31.5" width="4.5" height="2.25" transform="translate(548 65.25) rotate(-180)"/><rect class="cls-1" x="271.75" y="27" width="4.5" height="2.25" transform="translate(548 56.25) rotate(-180)"/><rect class="cls-1" x="262.75" y="18" width="2.25" height="11.25" transform="translate(527.75 47.25) rotate(-180)"/><rect class="cls-1" x="258.25" y="27" width="2.25" height="2.25"/><rect class="cls-1" x="253.75" y="31.5" width="11.25" height="2.25"/><rect class="cls-1" x="281.25" y="13.5" width="2.25" height="20.25"/><rect class="cls-1" x="285.75" y="13.5" width="11.25" height="2.25"/><rect class="cls-1" x="290.25" y="18" width="2.25" height="2.25"/><rect class="cls-1" x="285.75" y="18" width="2.25" height="15.75"/><rect class="cls-1" x="299.25" y="13.5" width="2.25" height="20.25" transform="translate(600.75 47.25) rotate(-180)"/><rect class="cls-1" x="294.75" y="18" width="2.25" height="15.75" transform="translate(591.75 51.75) rotate(-180)"/><rect class="cls-1" x="341.75" y="6.75" width="2.25" height="27"/><rect class="cls-1" x="348.5" width="13.5" height="2.25"/><rect class="cls-1" x="348.5" y="4.5" width="13.5" height="2.25"/><rect class="cls-1" x="355.25" y="13.5" width="4.5" height="2.25"/><rect class="cls-1" x="355.25" y="18" width="4.5" height="2.25"/><rect class="cls-1" x="366.5" y="6.75" width="2.25" height="27"/><rect class="cls-1" x="346.25" y="9" width="2.25" height="24.75"/><rect class="cls-1" x="362" y="9" width="2.25" height="24.75"/><rect class="cls-1" x="373.75" width="2.25" height="33.75"/><rect class="cls-1" x="378.25" width="2.25" height="33.75"/><rect class="cls-1" x="382.75" width="2.25" height="2.25"/><rect class="cls-1" x="382.75" y="4.5" width="4.5" height="2.25"/><rect class="cls-1" x="394.5" y="29.25" width="2.25" height="6.75" transform="translate(363 428.25) rotate(-90)"/><rect class="cls-1" x="394.5" y="-2.25" width="2.25" height="6.75" transform="translate(394.5 396.75) rotate(-90)"/><rect class="cls-1" x="395.62" y="25.88" width="2.25" height="4.5" transform="translate(368.62 424.87) rotate(-90)"/><rect class="cls-1" x="395.62" y="3.38" width="2.25" height="4.5" transform="translate(391.12 402.37) rotate(-90)"/><rect class="cls-1" x="399" y="24.75" width="6.75" height="2.25" transform="translate(376.5 428.25) rotate(-90)"/><rect class="cls-1" x="396.75" y="22.5" width="2.25" height="2.25" transform="translate(374.25 421.5) rotate(-90)"/><rect class="cls-1" x="401.25" y="15.75" width="6.75" height="2.25" transform="translate(387.75 421.5) rotate(-90)"/><rect class="cls-1" x="396.75" y="15.75" width="6.75" height="2.25" transform="translate(383.25 417) rotate(-90)"/><rect class="cls-1" x="399" y="6.75" width="6.75" height="2.25" transform="translate(394.5 410.25) rotate(-90)"/><rect class="cls-1" x="396.75" y="9" width="2.25" height="2.25" transform="translate(387.75 408) rotate(-90)"/></g></g></svg>