<svg xmlns="http://www.w3.org/2000/svg" viewBox="0 0 379.4 48.38"><defs><style>.cls-1{fill:#231f20;}</style></defs><title>rpja</title><g id="Layer_2" data-name="Layer 2"><g id="Layer_1-2" data-name="Layer 1"><rect class="cls-1" x="89.15" y="13.5" width="2.25" height="20.25"/><rect class="cls-1" x="93.65" y="13.5" width="11.25" height="2.25"/><rect class="cls-1" x="98.15" y="18" width="2.25" height="2.25"/><rect class="cls-1" x="93.65" y="18" width="2.25" height="11.25"/><rect class="cls-1" x="107.15" width="2.25" height="33.75" transform="translate(216.55 33.75) rotate(-180)"/><rect class="cls-1" x="93.65" y="31.5" width="11.25" height="2.25" transform="translate(198.55 65.25) rotate(-180)"/><rect class="cls-1" x="98.15" y="27" width="2.25" height="2.25" transform="translate(198.55 56.25) rotate(-180)"/><rect class="cls-1" x="102.65" y="18" width="2.25" height="11.25" transform="translate(207.55 47.25) rotate(-180)"/><rect class="cls-1" x="102.65" width="2.25" height="11.25"/><rect class="cls-1" x="31.9" y="13.5" width="2.25" height="20.25"/><rect class="cls-1" x="36.4" y="13.5" width="11.25" height="2.25"/><rect class="cls-1" x="40.9" y="18" width="2.25" height="2.25"/><rect class="cls-1" x="36.4" y="18" width="2.25" height="11.25"/><rect class="cls-1" x="49.9" y="13.5" width="2.25" height="20.25" transform="translate(102.05 47.25) rotate(-180)"/><rect class="cls-1" x="54.4" y="31.5" width="4.5" height="2.25" transform="translate(113.3 65.25) rotate(-180)"/><rect class="cls-1" x="54.4" y="27" width="4.5" height="2.25" transform="translate(113.3 56.25) rotate(-180)"/><rect class="cls-1" x="45.4" y="18" width="2.25" height="11.25" transform="translate(93.05 47.25) rotate(-180)"/><rect class="cls-1" x="40.9" y="27" width="2.25" height="2.25"/><rect class="cls-1" x="36.4" y="31.5" width="11.25" height="2.25"/><rect class="cls-1" width="2.15" height="33.75"/><rect class="cls-1" x="4.4" y="4.5" width="2.25" height="29.25"/><rect class="cls-1" x="4.4" width="11.25" height="2.25"/><rect class="cls-1" x="8.9" y="13.5" width="2.25" height="2.25"/><rect class="cls-1" x="8.9" y="18" width="2.25" height="2.25"/><rect class="cls-1" x="8.9" y="4.5" width="6.75" height="2.25"/><rect class="cls-1" x="13.4" y="9" width="2.25" height="4.5"/><rect class="cls-1" x="17.9" width="2.25" height="13.5"/><rect class="cls-1" x="15.65" y="22.5" width="2.25" height="6.75" transform="translate(-9.1 42.65) rotate(-90)"/><rect class="cls-1" x="15.65" y="18" width="2.25" height="6.75" transform="translate(-4.6 38.15) rotate(-90)"/><rect class="cls-1" x="19.03" y="30.38" width="4.5" height="2.25" transform="translate(52.78 10.22) rotate(90)"/><rect class="cls-1" x="22.4" y="29.25" width="6.75" height="2.25" transform="translate(56.15 4.6) rotate(90)"/><rect class="cls-1" x="114.4" y="13.5" width="2.25" height="20.25"/><rect class="cls-1" x="118.9" y="13.5" width="11.25" height="2.25"/><rect class="cls-1" x="123.4" y="18" width="2.25" height="2.25"/><rect class="cls-1" x="118.9" y="18" width="2.25" height="11.25"/><rect class="cls-1" x="132.4" y="13.5" width="2.25" height="20.25" transform="translate(267.05 47.25) rotate(-180)"/><rect class="cls-1" x="127.9" y="18" width="2.25" height="11.25" transform="translate(258.05 47.25) rotate(-180)"/><rect class="cls-1" x="118.9" y="31.5" width="11.25" height="2.25"/><rect class="cls-1" x="123.4" y="27" width="2.25" height="2.25"/><rect class="cls-1" x="139.65" y="13.5" width="2.25" height="20.25"/><rect class="cls-1" x="171.15" y="13.5" width="2.25" height="20.25"/><rect class="cls-1" x="144.15" y="18" width="2.25" height="15.75"/><rect class="cls-1" x="166.65" y="18" width="2.25" height="15.75"/><rect class="cls-1" x="144.15" y="13.5" width="24.65" height="2.25"/><rect class="cls-1" x="148.65" y="18" width="15.65" height="2.25"/><rect class="cls-1" x="153.15" y="22.5" width="2.25" height="11.25"/><rect class="cls-1" x="157.65" y="22.5" width="2.25" height="11.25"/><rect class="cls-1" x="63.9" y="13.5" width="2.25" height="20.25"/><rect class="cls-1" x="68.4" y="13.5" width="11.25" height="2.25"/><rect class="cls-1" x="72.9" y="18" width="2.25" height="2.25"/><rect class="cls-1" x="68.4" y="18" width="2.25" height="15.75"/><rect class="cls-1" x="81.9" y="13.5" width="2.25" height="20.25" transform="translate(166.05 47.25) rotate(-180)"/><rect class="cls-1" x="77.4" y="18" width="2.25" height="15.75" transform="translate(157.05 51.75) rotate(-180)"/><rect class="cls-1" x="287.03" y="14.63" width="2.25" height="20.25"/><rect class="cls-1" x="291.53" y="14.63" width="11.25" height="2.25"/><rect class="cls-1" x="300.53" y="19.13" width="11.25" height="2.25" transform="translate(285.9 326.4) rotate(-90)"/><rect class="cls-1" x="291.53" y="19.13" width="2.25" height="11.25"/><rect class="cls-1" x="291.53" y="32.63" width="15.75" height="2.25" transform="translate(598.8 67.5) rotate(-180)"/><rect class="cls-1" x="296.03" y="28.13" width="11.25" height="2.25" transform="translate(603.3 58.5) rotate(-180)"/><rect class="cls-1" x="296.03" y="23.63" width="6.75" height="2.25"/><rect class="cls-1" x="317.65" y="22.5" width="2.25" height="20.25" transform="translate(286.15 351.4) rotate(-90)"/><rect class="cls-1" x="304.15" y="22.5" width="11.25" height="2.25" transform="translate(286.15 333.4) rotate(-90)"/><rect class="cls-1" x="313.15" y="22.5" width="2.25" height="2.25" transform="translate(290.65 337.9) rotate(-90)"/><rect class="cls-1" x="319.9" y="20.25" width="2.25" height="15.75" transform="translate(292.9 349.15) rotate(-90)"/><rect class="cls-1" x="317.65" y="4.5" width="2.25" height="20.25" transform="translate(333.4 -304.15) rotate(90)"/><rect class="cls-1" x="319.9" y="11.25" width="2.25" height="15.75" transform="translate(340.15 -301.9) rotate(90)"/><rect class="cls-1" x="365.9" y="13.5" width="2.25" height="15.75"/><rect class="cls-1" x="370.4" y="18" width="2.25" height="15.75"/><rect class="cls-1" x="370.3" y="13.5" width="9.1" height="2.25"/><rect class="cls-1" x="374.8" y="18" width="4.6" height="2.25"/><rect class="cls-1" x="359.15" y="31.5" width="9.1" height="2.25" transform="translate(727.4 65.25) rotate(-180)"/><rect class="cls-1" x="359.15" y="27" width="4.6" height="2.25" transform="translate(722.9 56.25) rotate(-180)"/><rect class="cls-1" x="220.4" y="13.5" width="2.25" height="20.25"/><rect class="cls-1" x="224.9" y="13.5" width="15.75" height="2.25"/><rect class="cls-1" x="229.4" y="18" width="11.25" height="2.25"/><rect class="cls-1" x="224.9" y="18" width="2.25" height="15.75"/><rect class="cls-1" x="213.15" width="2.25" height="20.25" transform="translate(428.55 20.25) rotate(-180)"/><rect class="cls-1" x="192.9" y="18" width="18" height="2.25" transform="translate(403.8 38.25) rotate(-180)"/><rect class="cls-1" x="197.4" y="13.5" width="9" height="2.25" transform="translate(403.8 29.25) rotate(-180)"/><rect class="cls-1" x="208.65" y="4.5" width="2.25" height="11.25" transform="translate(419.55 20.25) rotate(-180)"/><rect class="cls-1" x="188.4" width="2.25" height="33.75"/><rect class="cls-1" x="192.9" width="18" height="2.25"/><rect class="cls-1" x="197.4" y="4.5" width="9" height="2.25"/><rect class="cls-1" x="192.9" y="4.5" width="2.25" height="11.25"/><rect class="cls-1" x="192.9" y="22.5" width="2.25" height="11.25" transform="translate(388.05 56.25) rotate(-180)"/><rect class="cls-1" x="340.65" y="18" width="2.25" height="11.25"/><rect class="cls-1" x="345.15" y="18" width="2.25" height="6.75"/><rect class="cls-1" x="333.9" y="13.5" width="20.25" height="2.25"/><rect class="cls-1" x="333.9" y="18" width="4.5" height="2.25"/><rect class="cls-1" x="349.65" y="18" width="4.5" height="2.25"/><rect class="cls-1" x="340.65" y="6.75" width="2.25" height="4.5"/><rect class="cls-1" x="345.15" y="6.75" width="2.25" height="4.5"/><rect class="cls-1" x="345.15" y="27" width="9" height="2.25"/><rect class="cls-1" x="340.65" y="31.5" width="13.5" height="2.25"/><rect class="cls-1" x="278.65" y="15.75" width="4.5" height="2.25" transform="translate(297.78 -264.03) rotate(90)"/><rect class="cls-1" x="274.15" y="15.75" width="4.5" height="2.25" transform="translate(293.28 -259.53) rotate(90)"/><rect class="cls-1" x="279.78" y="21.38" width="2.25" height="27" transform="translate(561.8 69.75) rotate(-180)"/><rect class="cls-1" x="275.28" y="21.38" width="2.25" height="11.25" transform="translate(552.8 54) rotate(-180)"/><rect class="cls-1" x="273.03" y="34.88" width="2.25" height="9" transform="translate(548.3 78.75) rotate(-180)"/><rect class="cls-1" x="268.53" y="46.13" width="9" height="2.25" transform="translate(546.05 94.5) rotate(-180)"/><rect class="cls-1" x="268.53" y="34.88" width="2.25" height="9" transform="translate(539.3 78.75) rotate(-180)"/><rect class="cls-1" x="245.65" y="13.5" width="2.25" height="20.25"/><rect class="cls-1" x="250.15" y="13.5" width="11.25" height="2.25"/><rect class="cls-1" x="254.65" y="18" width="2.25" height="2.25"/><rect class="cls-1" x="250.15" y="18" width="2.25" height="11.25"/><rect class="cls-1" x="263.65" y="13.5" width="2.25" height="20.25" transform="translate(529.55 47.25) rotate(-180)"/><rect class="cls-1" x="259.15" y="18" width="2.25" height="11.25" transform="translate(520.55 47.25) rotate(-180)"/><rect class="cls-1" x="250.15" y="31.5" width="11.25" height="2.25"/><rect class="cls-1" x="254.65" y="27" width="2.25" height="2.25"/></g></g></svg>