<svg xmlns="http://www.w3.org/2000/svg" viewBox="0 0 126.35 33.75"><defs><style>.cls-1{fill:#34869e;}</style></defs><title>skills</title><g id="Layer_2" data-name="Layer 2"><g id="Layer_1-2" data-name="Layer 1"><rect class="cls-1" x="112.85" y="13.5" width="2.25" height="15.75"/><rect class="cls-1" x="117.35" y="18" width="2.25" height="15.75"/><rect class="cls-1" x="117.25" y="13.5" width="9.1" height="2.25"/><rect class="cls-1" x="121.75" y="18" width="4.6" height="2.25"/><rect class="cls-1" x="106.1" y="31.5" width="9.1" height="2.25" transform="translate(221.3 65.25) rotate(-180)"/><rect class="cls-1" x="106.1" y="27" width="4.6" height="2.25" transform="translate(216.8 56.25) rotate(-180)"/><rect class="cls-1" x="15.85" y="22.5" width="2.15" height="6.75"/><rect class="cls-1" x="20.25" y="18" width="2.25" height="15.75"/><rect class="cls-1" x="9" width="18.1" height="2.25"/><rect class="cls-1" x="13.5" y="4.5" width="13.6" height="2.25"/><rect class="cls-1" y="31.5" width="18" height="2.25" transform="translate(18 65.25) rotate(-180)"/><rect class="cls-1" y="27" width="13.5" height="2.25" transform="translate(13.5 56.25) rotate(-180)"/><rect class="cls-1" x="13.5" y="13.5" width="9" height="2.25" transform="translate(36 29.25) rotate(180)"/><rect class="cls-1" x="9" y="18" width="9" height="2.25" transform="translate(27 38.25) rotate(180)"/><rect class="cls-1" x="-4.5" y="9" width="20.25" height="2.25" transform="translate(-4.5 15.75) rotate(-90)"/><rect class="cls-1" x="4.5" y="9" width="11.25" height="2.25" transform="translate(0 20.25) rotate(-90)"/><rect class="cls-1" x="32.1" width="2.25" height="33.75"/><rect class="cls-1" x="36.6" width="2.25" height="33.75"/><rect class="cls-1" x="41.1" y="20.25" width="2.25" height="2.25"/><rect class="cls-1" x="41.1" y="24.75" width="2.25" height="2.25"/><rect class="cls-1" x="45.6" y="13.5" width="6.75" height="2.25"/><rect class="cls-1" x="45.6" y="18" width="6.75" height="2.25"/><rect class="cls-1" x="45.6" y="27" width="6.75" height="2.25"/><rect class="cls-1" x="45.6" y="31.5" width="6.75" height="2.25"/><rect class="cls-1" x="69.1" width="2.25" height="33.75"/><rect class="cls-1" x="73.6" width="2.25" height="18"/><rect class="cls-1" x="75.85" y="20.25" width="2.25" height="9"/><rect class="cls-1" x="73.6" y="31.5" width="9" height="2.25"/><rect class="cls-1" x="80.35" y="20.25" width="2.25" height="9"/><rect class="cls-1" x="57.35" y="6.75" width="2.25" height="4.5"/><rect class="cls-1" x="61.85" y="6.75" width="2.25" height="4.5"/><rect class="cls-1" x="57.35" y="13.5" width="2.25" height="20.25"/><rect class="cls-1" x="61.85" y="13.5" width="2.25" height="20.25"/><rect class="cls-1" x="87.6" width="2.25" height="33.75"/><rect class="cls-1" x="92.1" width="2.25" height="18"/><rect class="cls-1" x="94.35" y="20.25" width="2.25" height="9"/><rect class="cls-1" x="92.1" y="31.5" width="9" height="2.25"/><rect class="cls-1" x="98.85" y="20.25" width="2.25" height="9"/></g></g></svg>