<svg xmlns="http://www.w3.org/2000/svg" viewBox="0 0 59 33.75"><defs><style>.cls-1{fill:#34869e;}</style></defs><title>wb</title><g id="Layer_2" data-name="Layer 2"><g id="Layer_4" data-name="Layer 4"><rect class="cls-1" x="56.75" y="20.25" width="2.25" height="13.5" transform="translate(115.75 54) rotate(-180)"/><rect class="cls-1" x="43.25" y="13.5" width="11.25" height="2.25" transform="translate(97.75 29.25) rotate(-180)"/><rect class="cls-1" x="43.25" y="18" width="11.25" height="2.25" transform="translate(97.75 38.25) rotate(-180)"/><rect class="cls-1" x="52.25" y="22.5" width="2.25" height="6.75" transform="translate(106.75 51.75) rotate(-180)"/><rect class="cls-1" x="38.75" width="2.25" height="33.75"/><rect class="cls-1" x="43.25" y="31.5" width="11.25" height="2.25"/><rect class="cls-1" x="47.75" y="27" width="2.25" height="2.25"/><rect class="cls-1" x="43.25" y="22.5" width="2.25" height="6.75"/><rect class="cls-1" x="56.75" width="2.25" height="13.5" transform="translate(115.75 13.5) rotate(180)"/><rect class="cls-1" x="52.25" y="4.5" width="2.25" height="6.75" transform="translate(106.75 15.75) rotate(180)"/><rect class="cls-1" x="43.25" width="11.25" height="2.25"/><rect class="cls-1" x="47.75" y="4.5" width="2.25" height="2.25"/><rect class="cls-1" x="43.25" y="4.5" width="2.25" height="6.75"/><rect class="cls-1" width="2.25" height="33.75"/><rect class="cls-1" x="31.5" width="2.25" height="33.75"/><rect class="cls-1" x="4.5" width="2.25" height="29.25"/><rect class="cls-1" x="27" width="2.25" height="29.25"/><rect class="cls-1" x="4.5" y="31.5" width="24.75" height="2.25"/><rect class="cls-1" x="9" y="27" width="15.75" height="2.25"/><rect class="cls-1" x="13.5" y="6.75" width="2.25" height="18"/><rect class="cls-1" x="18" y="6.75" width="2.25" height="18"/></g></g></svg>