<svg xmlns="http://www.w3.org/2000/svg" viewBox="0 0 84.25 33.75"><defs><style>.cls-1{fill:#33869e;}</style></defs><title>web</title><g id="Layer_2" data-name="Layer 2"><g id="Layer_4" data-name="Layer 4"><rect class="cls-1" x="38.75" y="13.5" width="2.25" height="20.25"/><rect class="cls-1" x="43.25" y="13.5" width="11.25" height="2.25"/><rect class="cls-1" x="52.25" y="18" width="11.25" height="2.25" transform="translate(38.75 77) rotate(-90)"/><rect class="cls-1" x="43.25" y="18" width="2.25" height="11.25"/><rect class="cls-1" x="43.25" y="31.5" width="15.75" height="2.25" transform="translate(102.25 65.25) rotate(-180)"/><rect class="cls-1" x="47.75" y="27" width="11.25" height="2.25" transform="translate(106.75 56.25) rotate(-180)"/><rect class="cls-1" x="47.75" y="22.5" width="6.75" height="2.25"/><rect class="cls-1" x="82" y="13.5" width="2.25" height="20.25" transform="translate(166.25 47.25) rotate(-180)"/><rect class="cls-1" x="68.5" y="13.5" width="11.25" height="2.25" transform="translate(148.25 29.25) rotate(-180)"/><rect class="cls-1" x="73" y="18" width="2.25" height="2.25" transform="translate(148.25 38.25) rotate(-180)"/><rect class="cls-1" x="77.5" y="18" width="2.25" height="11.25" transform="translate(157.25 47.25) rotate(-180)"/><rect class="cls-1" x="64" width="2.25" height="33.75"/><rect class="cls-1" x="68.5" y="31.5" width="11.25" height="2.25"/><rect class="cls-1" x="73" y="27" width="2.25" height="2.25"/><rect class="cls-1" x="68.5" y="18" width="2.25" height="11.25"/><rect class="cls-1" x="68.5" width="2.25" height="11.25" transform="translate(139.25 11.25) rotate(-180)"/><rect class="cls-1" width="2.25" height="33.75"/><rect class="cls-1" x="31.5" width="2.25" height="33.75"/><rect class="cls-1" x="4.5" width="2.25" height="29.25"/><rect class="cls-1" x="27" width="2.25" height="29.25"/><rect class="cls-1" x="4.5" y="31.5" width="24.75" height="2.25"/><rect class="cls-1" x="9" y="27" width="15.75" height="2.25"/><rect class="cls-1" x="13.5" y="6.75" width="2.25" height="18"/><rect class="cls-1" x="18" y="6.75" width="2.25" height="18"/></g></g></svg>